<svg width="16" height="16" viewBox="0 0 16 16" fill="none" xmlns="http://www.w3.org/2000/svg">
<path d="M6.66602 2.66675L9.33268 13.3334M7.99935 8.00008L2.66602 9.33341M2.66602 4.00008C2.66602 3.64646 2.80649 3.30732 3.05654 3.05727C3.30659 2.80722 3.64573 2.66675 3.99935 2.66675H11.9993C12.353 2.66675 12.6921 2.80722 12.9422 3.05727C13.1922 3.30732 13.3327 3.64646 13.3327 4.00008V12.0001C13.3327 12.3537 13.1922 12.6928 12.9422 12.9429C12.6921 13.1929 12.353 13.3334 11.9993 13.3334H3.99935C3.64573 13.3334 3.30659 13.1929 3.05654 12.9429C2.80649 12.6928 2.66602 12.3537 2.66602 12.0001V4.00008Z" stroke="#7D7D7D" stroke-width="1.25" stroke-linecap="round" stroke-linejoin="round"/>
</svg>
