<svg width="16" height="16" viewBox="0 0 16 16" fill="none" xmlns="http://www.w3.org/2000/svg">
<path d="M6.00065 3.33333H4.66732C4.3137 3.33333 3.97456 3.47381 3.72451 3.72386C3.47446 3.97391 3.33398 4.31304 3.33398 4.66667V12.6667C3.33398 13.0203 3.47446 13.3594 3.72451 13.6095C3.97456 13.8595 4.3137 14 4.66732 14H11.334C11.6876 14 12.0267 13.8595 12.2768 13.6095C12.5268 13.3594 12.6673 13.0203 12.6673 12.6667V4.66667C12.6673 4.31304 12.5268 3.97391 12.2768 3.72386C12.0267 3.47381 11.6876 3.33333 11.334 3.33333H10.0007M6.00065 3.33333C6.00065 2.97971 6.14113 2.64057 6.39118 2.39052C6.64122 2.14048 6.98036 2 7.33398 2H8.66732C9.02094 2 9.36008 2.14048 9.61013 2.39052C9.86017 2.64057 10.0007 2.97971 10.0007 3.33333M6.00065 3.33333C6.00065 3.68696 6.14113 4.02609 6.39118 4.27614C6.64122 4.52619 6.98036 4.66667 7.33398 4.66667H8.66732C9.02094 4.66667 9.36008 4.52619 9.61013 4.27614C9.86017 4.02609 10.0007 3.68696 10.0007 3.33333M6.00065 11.3333V8.66667M8.00065 11.3333V10.6667M10.0007 11.3333V10" stroke="#7D7D7D" stroke-width="1.25" stroke-linecap="round" stroke-linejoin="round"/>
</svg>
