<svg width="16" height="16" viewBox="0 0 16 16" fill="none" xmlns="http://www.w3.org/2000/svg">
<path d="M13.25 4.17989C13.4791 4.3102 13.6694 4.4992 13.8012 4.72746C13.933 4.95572 14.0016 5.21498 14 5.47856V10.3346C14 10.8739 13.7047 11.3712 13.228 11.6332L8.728 14.4799C8.5049 14.6024 8.25451 14.6666 8 14.6666C7.74549 14.6666 7.4951 14.6024 7.272 14.4799L2.772 11.6332C2.53878 11.5058 2.34408 11.318 2.20827 11.0895C2.07247 10.8611 2.00053 10.6003 2 10.3346V5.47789C2 4.93856 2.29533 4.44189 2.772 4.17989L7.272 1.52656C7.50169 1.39991 7.75971 1.3335 8.022 1.3335C8.28429 1.3335 8.54231 1.39991 8.772 1.52656L13.272 4.17989H13.25Z" stroke="#7D7D7D" stroke-width="1.25" stroke-linecap="round" stroke-linejoin="round"/>
<path d="M6 7.9999C6 8.53033 6.21071 9.03904 6.58579 9.41411C6.96086 9.78919 7.46957 9.9999 8 9.9999C8.53043 9.9999 9.03914 9.78919 9.41421 9.41411C9.78929 9.03904 10 8.53033 10 7.9999C10 7.46947 9.78929 6.96076 9.41421 6.58568C9.03914 6.21061 8.53043 5.9999 8 5.9999C7.46957 5.9999 6.96086 6.21061 6.58579 6.58568C6.21071 6.96076 6 7.46947 6 7.9999Z" stroke="#7D7D7D" stroke-width="1.25" stroke-linecap="round" stroke-linejoin="round"/>
</svg>
