<svg width="16" height="16" viewBox="0 0 16 16" fill="none" xmlns="http://www.w3.org/2000/svg">
<path d="M11.3328 6.66675L9.99951 2.66675M4.66618 6.66675L5.99951 2.66675M7.33283 13.3334H4.82883C4.35109 13.3334 3.88915 13.1624 3.52658 12.8513C3.16401 12.5402 2.92477 12.1096 2.85216 11.6374L2.01549 6.86941C1.98627 6.6794 1.99849 6.48532 2.0513 6.30047C2.10411 6.11562 2.19627 5.94438 2.32146 5.79848C2.44665 5.65259 2.6019 5.53549 2.77659 5.45521C2.95127 5.37494 3.14125 5.33339 3.33349 5.33341H12.6662C12.8584 5.33339 13.0484 5.37494 13.2231 5.45521C13.3977 5.53549 13.553 5.65259 13.6782 5.79848C13.8034 5.94438 13.8955 6.11562 13.9484 6.30047C14.0012 6.48532 14.0134 6.6794 13.9842 6.86941L13.6648 8.68875M9.99951 12.6667L11.3328 14.0001L13.9995 11.3334M6.66618 9.33341C6.66618 9.68704 6.80665 10.0262 7.0567 10.2762C7.30675 10.5263 7.64589 10.6667 7.99951 10.6667C8.35313 10.6667 8.69227 10.5263 8.94232 10.2762C9.19237 10.0262 9.33285 9.68704 9.33285 9.33341C9.33285 8.97979 9.19237 8.64065 8.94232 8.39061C8.69227 8.14056 8.35313 8.00008 7.99951 8.00008C7.64589 8.00008 7.30675 8.14056 7.0567 8.39061C6.80665 8.64065 6.66618 8.97979 6.66618 9.33341Z" stroke="#7D7D7D" stroke-width="1.25" stroke-linecap="round" stroke-linejoin="round"/>
</svg>
