<svg width="678" height="376" viewBox="0 0 678 376" fill="none" xmlns="http://www.w3.org/2000/svg">
<rect opacity="0.5" width="678" height="376" rx="50" fill="white"/>
<path d="M317.442 43V28.1H322.302C323.875 28.1 325.242 28.42 326.402 29.06C327.575 29.6867 328.482 30.56 329.122 31.68C329.762 32.7867 330.082 34.0733 330.082 35.54C330.082 36.9933 329.762 38.2867 329.122 39.42C328.482 40.54 327.575 41.42 326.402 42.06C325.242 42.6867 323.875 43 322.302 43H317.442ZM320.162 40.6H322.362C323.375 40.6 324.249 40.3933 324.982 39.98C325.729 39.5533 326.309 38.9667 326.722 38.22C327.135 37.46 327.342 36.5667 327.342 35.54C327.342 34.5 327.135 33.6067 326.722 32.86C326.309 32.1133 325.729 31.5333 324.982 31.12C324.249 30.7067 323.375 30.5 322.362 30.5H320.162V40.6ZM335.288 43.24C334.528 43.24 333.868 43.1133 333.308 42.86C332.748 42.6067 332.314 42.2467 332.008 41.78C331.701 41.3 331.548 40.7467 331.548 40.12C331.548 39.52 331.681 38.9867 331.948 38.52C332.214 38.04 332.628 37.64 333.188 37.32C333.748 37 334.454 36.7733 335.308 36.64L338.868 36.06V38.06L335.808 38.58C335.288 38.6733 334.901 38.84 334.648 39.08C334.394 39.32 334.268 39.6333 334.268 40.02C334.268 40.3933 334.408 40.6933 334.688 40.92C334.981 41.1333 335.341 41.24 335.768 41.24C336.314 41.24 336.794 41.1267 337.208 40.9C337.634 40.66 337.961 40.3333 338.188 39.92C338.428 39.5067 338.548 39.0533 338.548 38.56V35.76C338.548 35.2933 338.361 34.9067 337.988 34.6C337.628 34.28 337.148 34.12 336.548 34.12C335.988 34.12 335.488 34.2733 335.048 34.58C334.621 34.8733 334.308 35.2667 334.108 35.76L331.968 34.72C332.181 34.1467 332.514 33.6533 332.968 33.24C333.434 32.8133 333.981 32.48 334.608 32.24C335.234 32 335.914 31.88 336.648 31.88C337.541 31.88 338.328 32.0467 339.008 32.38C339.688 32.7 340.214 33.1533 340.588 33.74C340.974 34.3133 341.168 34.9867 341.168 35.76V43H338.688V41.14L339.248 41.1C338.968 41.5667 338.634 41.96 338.248 42.28C337.861 42.5867 337.421 42.8267 336.928 43C336.434 43.16 335.888 43.24 335.288 43.24ZM348.354 43.12C347.127 43.12 346.174 42.7867 345.494 42.12C344.827 41.44 344.494 40.4867 344.494 39.26V34.46H342.614V32.12H342.814C343.347 32.12 343.76 31.98 344.054 31.7C344.347 31.42 344.494 31.0133 344.494 30.48V29.64H347.114V32.12H349.614V34.46H347.114V39.12C347.114 39.48 347.174 39.7867 347.294 40.04C347.427 40.2933 347.627 40.4867 347.894 40.62C348.174 40.7533 348.527 40.82 348.954 40.82C349.047 40.82 349.154 40.8133 349.274 40.8C349.407 40.7867 349.534 40.7733 349.654 40.76V43C349.467 43.0267 349.254 43.0533 349.014 43.08C348.774 43.1067 348.554 43.12 348.354 43.12ZM354.916 43.24C354.156 43.24 353.496 43.1133 352.936 42.86C352.376 42.6067 351.943 42.2467 351.636 41.78C351.33 41.3 351.176 40.7467 351.176 40.12C351.176 39.52 351.31 38.9867 351.576 38.52C351.843 38.04 352.256 37.64 352.816 37.32C353.376 37 354.083 36.7733 354.936 36.64L358.496 36.06V38.06L355.436 38.58C354.916 38.6733 354.53 38.84 354.276 39.08C354.023 39.32 353.896 39.6333 353.896 40.02C353.896 40.3933 354.036 40.6933 354.316 40.92C354.61 41.1333 354.97 41.24 355.396 41.24C355.943 41.24 356.423 41.1267 356.836 40.9C357.263 40.66 357.59 40.3333 357.816 39.92C358.056 39.5067 358.176 39.0533 358.176 38.56V35.76C358.176 35.2933 357.99 34.9067 357.616 34.6C357.256 34.28 356.776 34.12 356.176 34.12C355.616 34.12 355.116 34.2733 354.676 34.58C354.25 34.8733 353.936 35.2667 353.736 35.76L351.596 34.72C351.81 34.1467 352.143 33.6533 352.596 33.24C353.063 32.8133 353.61 32.48 354.236 32.24C354.863 32 355.543 31.88 356.276 31.88C357.17 31.88 357.956 32.0467 358.636 32.38C359.316 32.7 359.843 33.1533 360.216 33.74C360.603 34.3133 360.796 34.9867 360.796 35.76V43H358.316V41.14L358.876 41.1C358.596 41.5667 358.263 41.96 357.876 42.28C357.49 42.5867 357.05 42.8267 356.556 43C356.063 43.16 355.516 43.24 354.916 43.24Z" fill="black"/>
<path d="M243.128 163.36C241.528 163.36 240.048 163.07 238.688 162.49C237.348 161.91 236.168 161.1 235.148 160.06C234.148 159.02 233.368 157.8 232.808 156.4C232.248 155 231.968 153.47 231.968 151.81C231.968 150.15 232.238 148.62 232.778 147.22C233.338 145.8 234.118 144.58 235.118 143.56C236.138 142.52 237.328 141.72 238.688 141.16C240.048 140.58 241.528 140.29 243.128 140.29C244.728 140.29 246.158 140.56 247.418 141.1C248.698 141.64 249.778 142.36 250.658 143.26C251.538 144.14 252.168 145.11 252.548 146.17L248.888 147.88C248.468 146.76 247.758 145.84 246.758 145.12C245.758 144.38 244.548 144.01 243.128 144.01C241.728 144.01 240.488 144.34 239.408 145C238.348 145.66 237.518 146.57 236.918 147.73C236.338 148.89 236.048 150.25 236.048 151.81C236.048 153.37 236.338 154.74 236.918 155.92C237.518 157.08 238.348 157.99 239.408 158.65C240.488 159.31 241.728 159.64 243.128 159.64C244.548 159.64 245.758 159.28 246.758 158.56C247.758 157.82 248.468 156.89 248.888 155.77L252.548 157.48C252.168 158.54 251.538 159.52 250.658 160.42C249.778 161.3 248.698 162.01 247.418 162.55C246.158 163.09 244.728 163.36 243.128 163.36ZM263.217 163.36C261.617 163.36 260.157 162.99 258.837 162.25C257.537 161.51 256.497 160.5 255.717 159.22C254.957 157.94 254.577 156.48 254.577 154.84C254.577 153.2 254.957 151.74 255.717 150.46C256.497 149.18 257.537 148.17 258.837 147.43C260.137 146.69 261.597 146.32 263.217 146.32C264.817 146.32 266.267 146.69 267.567 147.43C268.867 148.17 269.897 149.18 270.657 150.46C271.437 151.72 271.827 153.18 271.827 154.84C271.827 156.48 271.437 157.94 270.657 159.22C269.877 160.5 268.837 161.51 267.537 162.25C266.237 162.99 264.797 163.36 263.217 163.36ZM263.217 159.76C264.097 159.76 264.867 159.55 265.527 159.13C266.207 158.71 266.737 158.13 267.117 157.39C267.517 156.63 267.717 155.78 267.717 154.84C267.717 153.88 267.517 153.04 267.117 152.32C266.737 151.58 266.207 151 265.527 150.58C264.867 150.14 264.097 149.92 263.217 149.92C262.317 149.92 261.527 150.14 260.847 150.58C260.167 151 259.627 151.58 259.227 152.32C258.847 153.04 258.657 153.88 258.657 154.84C258.657 155.78 258.847 156.63 259.227 157.39C259.627 158.13 260.167 158.71 260.847 159.13C261.527 159.55 262.317 159.76 263.217 159.76ZM278.625 163L273.015 146.68H277.155L281.265 159.07L279.825 159.04L284.205 146.68H287.685L292.035 159.04L290.595 159.07L294.705 146.68H298.845L293.235 163H289.725L285.285 150.07H286.605L282.105 163H278.625ZM306.661 163V140.65H310.741V163H306.661ZM315.04 163V140.65H322.33C324.69 140.65 326.74 141.13 328.48 142.09C330.24 143.03 331.6 144.34 332.56 146.02C333.52 147.68 334 149.61 334 151.81C334 153.99 333.52 155.93 332.56 157.63C331.6 159.31 330.24 160.63 328.48 161.59C326.74 162.53 324.69 163 322.33 163H315.04ZM319.12 159.4H322.42C323.94 159.4 325.25 159.09 326.35 158.47C327.47 157.83 328.34 156.95 328.96 155.83C329.58 154.69 329.89 153.35 329.89 151.81C329.89 150.25 329.58 148.91 328.96 147.79C328.34 146.67 327.47 145.8 326.35 145.18C325.25 144.56 323.94 144.25 322.42 144.25H319.12V159.4ZM338.387 163V159.4H341.297V163H338.387ZM338.387 150.43V146.83H341.297V150.43H338.387ZM350.124 163L358.134 140.65H361.614L369.624 163H366.474L364.644 157.75H355.104L353.274 163H350.124ZM356.034 155.05H363.714L359.454 142.78H360.294L356.034 155.05ZM375.29 163V143.2H371.06V140.65H378.26V163H375.29ZM392.295 163.36C390.515 163.36 388.955 162.88 387.615 161.92C386.295 160.94 385.265 159.59 384.525 157.87C383.785 156.13 383.415 154.11 383.415 151.81C383.415 149.51 383.785 147.5 384.525 145.78C385.265 144.04 386.295 142.69 387.615 141.73C388.935 140.77 390.485 140.29 392.265 140.29C394.045 140.29 395.595 140.77 396.915 141.73C398.235 142.69 399.265 144.04 400.005 145.78C400.765 147.5 401.145 149.51 401.145 151.81C401.145 154.11 400.775 156.13 400.035 157.87C399.295 159.61 398.255 160.96 396.915 161.92C395.595 162.88 394.055 163.36 392.295 163.36ZM392.295 160.63C393.495 160.63 394.535 160.27 395.415 159.55C396.295 158.81 396.975 157.78 397.455 156.46C397.955 155.14 398.205 153.59 398.205 151.81C398.205 150.03 397.955 148.48 397.455 147.16C396.975 145.84 396.285 144.82 395.385 144.1C394.505 143.38 393.465 143.02 392.265 143.02C391.065 143.02 390.025 143.38 389.145 144.1C388.265 144.82 387.575 145.84 387.075 147.16C386.595 148.48 386.355 150.03 386.355 151.81C386.355 153.57 386.595 155.11 387.075 156.43C387.575 157.75 388.265 158.78 389.145 159.52C390.045 160.26 391.095 160.63 392.295 160.63ZM414.004 163.36C412.224 163.36 410.664 162.88 409.324 161.92C408.004 160.94 406.974 159.59 406.234 157.87C405.494 156.13 405.124 154.11 405.124 151.81C405.124 149.51 405.494 147.5 406.234 145.78C406.974 144.04 408.004 142.69 409.324 141.73C410.644 140.77 412.194 140.29 413.974 140.29C415.754 140.29 417.304 140.77 418.624 141.73C419.944 142.69 420.974 144.04 421.714 145.78C422.474 147.5 422.854 149.51 422.854 151.81C422.854 154.11 422.484 156.13 421.744 157.87C421.004 159.61 419.964 160.96 418.624 161.92C417.304 162.88 415.764 163.36 414.004 163.36ZM414.004 160.63C415.204 160.63 416.244 160.27 417.124 159.55C418.004 158.81 418.684 157.78 419.164 156.46C419.664 155.14 419.914 153.59 419.914 151.81C419.914 150.03 419.664 148.48 419.164 147.16C418.684 145.84 417.994 144.82 417.094 144.1C416.214 143.38 415.174 143.02 413.974 143.02C412.774 143.02 411.734 143.38 410.854 144.1C409.974 144.82 409.284 145.84 408.784 147.16C408.304 148.48 408.064 150.03 408.064 151.81C408.064 153.57 408.304 155.11 408.784 156.43C409.284 157.75 409.974 158.78 410.854 159.52C411.754 160.26 412.804 160.63 414.004 160.63ZM435.713 163.36C433.933 163.36 432.373 162.88 431.033 161.92C429.713 160.94 428.683 159.59 427.943 157.87C427.203 156.13 426.833 154.11 426.833 151.81C426.833 149.51 427.203 147.5 427.943 145.78C428.683 144.04 429.713 142.69 431.033 141.73C432.353 140.77 433.903 140.29 435.683 140.29C437.463 140.29 439.013 140.77 440.333 141.73C441.653 142.69 442.683 144.04 443.423 145.78C444.183 147.5 444.563 149.51 444.563 151.81C444.563 154.11 444.193 156.13 443.453 157.87C442.713 159.61 441.673 160.96 440.333 161.92C439.013 162.88 437.473 163.36 435.713 163.36ZM435.713 160.63C436.913 160.63 437.953 160.27 438.833 159.55C439.713 158.81 440.393 157.78 440.873 156.46C441.373 155.14 441.623 153.59 441.623 151.81C441.623 150.03 441.373 148.48 440.873 147.16C440.393 145.84 439.703 144.82 438.803 144.1C437.923 143.38 436.883 143.02 435.683 143.02C434.483 143.02 433.443 143.38 432.563 144.1C431.683 144.82 430.993 145.84 430.493 147.16C430.013 148.48 429.773 150.03 429.773 151.81C429.773 153.57 430.013 155.11 430.493 156.43C430.993 157.75 431.683 158.78 432.563 159.52C433.463 160.26 434.513 160.63 435.713 160.63ZM151.897 208.36C150.297 208.36 148.817 208.07 147.457 207.49C146.117 206.91 144.937 206.1 143.917 205.06C142.917 204.02 142.137 202.8 141.577 201.4C141.017 200 140.737 198.47 140.737 196.81C140.737 195.15 141.007 193.62 141.547 192.22C142.107 190.8 142.887 189.58 143.887 188.56C144.907 187.52 146.097 186.72 147.457 186.16C148.817 185.58 150.297 185.29 151.897 185.29C153.497 185.29 154.927 185.56 156.187 186.1C157.467 186.64 158.547 187.36 159.427 188.26C160.307 189.14 160.937 190.11 161.317 191.17L157.657 192.88C157.237 191.76 156.527 190.84 155.527 190.12C154.527 189.38 153.317 189.01 151.897 189.01C150.497 189.01 149.257 189.34 148.177 190C147.117 190.66 146.287 191.57 145.687 192.73C145.107 193.89 144.817 195.25 144.817 196.81C144.817 198.37 145.107 199.74 145.687 200.92C146.287 202.08 147.117 202.99 148.177 203.65C149.257 204.31 150.497 204.64 151.897 204.64C153.317 204.64 154.527 204.28 155.527 203.56C156.527 202.82 157.237 201.89 157.657 200.77L161.317 202.48C160.937 203.54 160.307 204.52 159.427 205.42C158.547 206.3 157.467 207.01 156.187 207.55C154.927 208.09 153.497 208.36 151.897 208.36ZM171.987 208.36C170.387 208.36 168.927 207.99 167.607 207.25C166.307 206.51 165.267 205.5 164.487 204.22C163.727 202.94 163.347 201.48 163.347 199.84C163.347 198.2 163.727 196.74 164.487 195.46C165.267 194.18 166.307 193.17 167.607 192.43C168.907 191.69 170.367 191.32 171.987 191.32C173.587 191.32 175.037 191.69 176.337 192.43C177.637 193.17 178.667 194.18 179.427 195.46C180.207 196.72 180.597 198.18 180.597 199.84C180.597 201.48 180.207 202.94 179.427 204.22C178.647 205.5 177.607 206.51 176.307 207.25C175.007 207.99 173.567 208.36 171.987 208.36ZM171.987 204.76C172.867 204.76 173.637 204.55 174.297 204.13C174.977 203.71 175.507 203.13 175.887 202.39C176.287 201.63 176.487 200.78 176.487 199.84C176.487 198.88 176.287 198.04 175.887 197.32C175.507 196.58 174.977 196 174.297 195.58C173.637 195.14 172.867 194.92 171.987 194.92C171.087 194.92 170.297 195.14 169.617 195.58C168.937 196 168.397 196.58 167.997 197.32C167.617 198.04 167.427 198.88 167.427 199.84C167.427 200.78 167.617 201.63 167.997 202.39C168.397 203.13 168.937 203.71 169.617 204.13C170.297 204.55 171.087 204.76 171.987 204.76ZM187.394 208L181.784 191.68H185.924L190.034 204.07L188.594 204.04L192.974 191.68H196.454L200.804 204.04L199.364 204.07L203.474 191.68H207.614L202.004 208H198.494L194.054 195.07H195.374L190.874 208H187.394ZM219.391 208V189.25H213.601V185.65H229.201V189.25H223.501V208H219.391ZM232.139 214.6C231.699 214.6 231.269 214.56 230.849 214.48C230.429 214.42 230.049 214.3 229.709 214.12V210.85C229.969 210.91 230.279 210.97 230.639 211.03C231.019 211.09 231.369 211.12 231.689 211.12C232.589 211.12 233.239 210.91 233.639 210.49C234.059 210.09 234.429 209.55 234.749 208.87L235.829 206.35L235.769 209.65L228.659 191.68H232.889L237.869 204.94H236.369L241.319 191.68H245.579L238.469 209.65C238.049 210.69 237.539 211.58 236.939 212.32C236.339 213.06 235.639 213.62 234.839 214C234.059 214.4 233.159 214.6 232.139 214.6ZM247.737 214V191.68H251.427V194.92L251.067 194.11C251.627 193.23 252.387 192.55 253.347 192.07C254.307 191.57 255.417 191.32 256.677 191.32C258.217 191.32 259.607 191.7 260.847 192.46C262.087 193.22 263.067 194.24 263.787 195.52C264.527 196.8 264.897 198.24 264.897 199.84C264.897 201.42 264.537 202.86 263.817 204.16C263.097 205.46 262.117 206.49 260.877 207.25C259.637 207.99 258.227 208.36 256.647 208.36C255.467 208.36 254.377 208.13 253.377 207.67C252.397 207.19 251.617 206.51 251.037 205.63L251.667 204.85V214H247.737ZM256.197 204.76C257.097 204.76 257.897 204.55 258.597 204.13C259.297 203.71 259.837 203.13 260.217 202.39C260.617 201.65 260.817 200.8 260.817 199.84C260.817 198.88 260.617 198.04 260.217 197.32C259.837 196.58 259.297 196 258.597 195.58C257.897 195.14 257.097 194.92 256.197 194.92C255.337 194.92 254.557 195.13 253.857 195.55C253.177 195.97 252.637 196.56 252.237 197.32C251.857 198.06 251.667 198.9 251.667 199.84C251.667 200.8 251.857 201.65 252.237 202.39C252.637 203.13 253.177 203.71 253.857 204.13C254.557 204.55 255.337 204.76 256.197 204.76ZM275.633 208.36C273.953 208.36 272.483 207.98 271.223 207.22C269.963 206.46 268.983 205.43 268.283 204.13C267.583 202.83 267.233 201.39 267.233 199.81C267.233 198.17 267.583 196.72 268.283 195.46C269.003 194.18 269.973 193.17 271.193 192.43C272.433 191.69 273.813 191.32 275.333 191.32C276.613 191.32 277.733 191.53 278.693 191.95C279.673 192.37 280.503 192.95 281.183 193.69C281.863 194.43 282.383 195.28 282.743 196.24C283.103 197.18 283.283 198.2 283.283 199.3C283.283 199.58 283.263 199.87 283.223 200.17C283.203 200.47 283.153 200.73 283.073 200.95H270.473V197.95H280.853L278.993 199.36C279.173 198.44 279.123 197.62 278.843 196.9C278.583 196.18 278.143 195.61 277.523 195.19C276.923 194.77 276.193 194.56 275.333 194.56C274.513 194.56 273.783 194.77 273.143 195.19C272.503 195.59 272.013 196.19 271.673 196.99C271.353 197.77 271.233 198.72 271.313 199.84C271.233 200.84 271.363 201.73 271.703 202.51C272.063 203.27 272.583 203.86 273.263 204.28C273.963 204.7 274.763 204.91 275.663 204.91C276.563 204.91 277.323 204.72 277.943 204.34C278.583 203.96 279.083 203.45 279.443 202.81L282.623 204.37C282.303 205.15 281.803 205.84 281.123 206.44C280.443 207.04 279.633 207.51 278.693 207.85C277.773 208.19 276.753 208.36 275.633 208.36ZM292.918 208V204.4H295.828V208H292.918ZM292.918 195.43V191.83H295.828V195.43H292.918ZM306.815 208V185.65H320.975V188.35H309.755V195.58H319.925V198.28H309.755V208H306.815ZM323.067 208V191.83H325.797V194.8L325.497 194.38C325.877 193.46 326.457 192.78 327.237 192.34C328.017 191.88 328.967 191.65 330.087 191.65H331.077V194.29H329.667C328.527 194.29 327.607 194.65 326.907 195.37C326.207 196.07 325.857 197.07 325.857 198.37V208H323.067ZM333.556 208V191.83H336.346V208H333.556ZM333.556 189.25V185.65H336.346V189.25H333.556ZM348.115 208.36C346.555 208.36 345.165 207.99 343.945 207.25C342.725 206.51 341.765 205.5 341.065 204.22C340.365 202.92 340.015 201.47 340.015 199.87C340.015 198.25 340.355 196.81 341.035 195.55C341.735 194.29 342.675 193.3 343.855 192.58C345.055 191.84 346.395 191.47 347.875 191.47C349.075 191.47 350.135 191.69 351.055 192.13C351.995 192.55 352.785 193.13 353.425 193.87C354.085 194.59 354.585 195.42 354.925 196.36C355.285 197.28 355.465 198.24 355.465 199.24C355.465 199.46 355.445 199.71 355.405 199.99C355.385 200.25 355.355 200.5 355.315 200.74H342.055V198.34H353.695L352.375 199.42C352.555 198.38 352.455 197.45 352.075 196.63C351.695 195.81 351.135 195.16 350.395 194.68C349.655 194.2 348.815 193.96 347.875 193.96C346.935 193.96 346.075 194.2 345.295 194.68C344.515 195.16 343.905 195.85 343.465 196.75C343.045 197.63 342.875 198.68 342.955 199.9C342.875 201.08 343.055 202.12 343.495 203.02C343.955 203.9 344.595 204.59 345.415 205.09C346.255 205.57 347.165 205.81 348.145 205.81C349.225 205.81 350.135 205.56 350.875 205.06C351.615 204.56 352.215 203.92 352.675 203.14L355.015 204.34C354.695 205.08 354.195 205.76 353.515 206.38C352.855 206.98 352.065 207.46 351.145 207.82C350.245 208.18 349.235 208.36 348.115 208.36ZM364.892 208.36C363.272 208.36 361.862 207.96 360.662 207.16C359.462 206.36 358.612 205.28 358.112 203.92L360.332 202.84C360.792 203.8 361.422 204.56 362.222 205.12C363.022 205.68 363.912 205.96 364.892 205.96C365.772 205.96 366.502 205.75 367.082 205.33C367.662 204.91 367.952 204.36 367.952 203.68C367.952 203.2 367.812 202.82 367.532 202.54C367.272 202.24 366.952 202.01 366.572 201.85C366.192 201.67 365.842 201.54 365.522 201.46L363.092 200.77C361.632 200.35 360.562 199.75 359.882 198.97C359.222 198.19 358.892 197.28 358.892 196.24C358.892 195.28 359.132 194.45 359.612 193.75C360.112 193.03 360.782 192.47 361.622 192.07C362.482 191.67 363.442 191.47 364.502 191.47C365.922 191.47 367.192 191.83 368.312 192.55C369.452 193.27 370.262 194.28 370.742 195.58L368.462 196.63C368.102 195.79 367.562 195.13 366.842 194.65C366.122 194.15 365.312 193.9 364.412 193.9C363.592 193.9 362.942 194.11 362.462 194.53C361.982 194.93 361.742 195.44 361.742 196.06C361.742 196.52 361.862 196.9 362.102 197.2C362.342 197.48 362.632 197.7 362.972 197.86C363.312 198 363.642 198.12 363.962 198.22L366.602 199C367.922 199.38 368.942 199.97 369.662 200.77C370.402 201.57 370.772 202.53 370.772 203.65C370.772 204.55 370.522 205.36 370.022 206.08C369.522 206.8 368.832 207.36 367.952 207.76C367.072 208.16 366.052 208.36 364.892 208.36ZM374.425 208V191.83H377.215V208H374.425ZM374.425 189.25V185.65H377.215V189.25H374.425ZM386.284 208.36C385.224 208.36 384.284 208.17 383.464 207.79C382.664 207.39 382.034 206.85 381.574 206.17C381.114 205.47 380.884 204.67 380.884 203.77C380.884 202.91 381.064 202.14 381.424 201.46C381.804 200.76 382.384 200.17 383.164 199.69C383.964 199.21 384.964 198.87 386.164 198.67L392.164 197.68V200.02L386.794 200.92C385.754 201.1 384.994 201.43 384.514 201.91C384.054 202.39 383.824 202.98 383.824 203.68C383.824 204.34 384.084 204.89 384.604 205.33C385.144 205.77 385.814 205.99 386.614 205.99C387.634 205.99 388.514 205.78 389.254 205.36C390.014 204.92 390.604 204.33 391.024 203.59C391.464 202.85 391.684 202.03 391.684 201.13V197.02C391.684 196.14 391.354 195.43 390.694 194.89C390.054 194.33 389.204 194.05 388.144 194.05C387.224 194.05 386.404 194.29 385.684 194.77C384.984 195.23 384.464 195.85 384.124 196.63L381.694 195.37C381.994 194.63 382.474 193.97 383.134 193.39C383.794 192.79 384.564 192.32 385.444 191.98C386.324 191.64 387.244 191.47 388.204 191.47C389.444 191.47 390.534 191.71 391.474 192.19C392.414 192.65 393.144 193.3 393.664 194.14C394.204 194.96 394.474 195.92 394.474 197.02V208H391.744V204.94L392.254 205.12C391.914 205.76 391.454 206.32 390.874 206.8C390.294 207.28 389.614 207.66 388.834 207.94C388.054 208.22 387.204 208.36 386.284 208.36ZM398.8 208V191.83H401.53V194.98L401.08 194.71C401.48 193.69 402.12 192.9 403 192.34C403.9 191.76 404.95 191.47 406.15 191.47C407.31 191.47 408.34 191.73 409.24 192.25C410.16 192.77 410.88 193.49 411.4 194.41C411.94 195.33 412.21 196.37 412.21 197.53V208H409.39V198.43C409.39 197.53 409.23 196.77 408.91 196.15C408.59 195.53 408.13 195.05 407.53 194.71C406.95 194.35 406.28 194.17 405.52 194.17C404.76 194.17 404.08 194.35 403.48 194.71C402.9 195.05 402.44 195.54 402.1 196.18C401.76 196.8 401.59 197.55 401.59 198.43V208H398.8ZM421.718 208V185.65H424.658V195.61H435.848V185.65H438.818V208H435.848V198.31H424.658V208H421.718ZM451.128 208.36C449.568 208.36 448.158 208 446.898 207.28C445.638 206.54 444.638 205.53 443.898 204.25C443.158 202.97 442.788 201.52 442.788 199.9C442.788 198.28 443.148 196.84 443.868 195.58C444.608 194.32 445.608 193.32 446.868 192.58C448.128 191.84 449.548 191.47 451.128 191.47C452.688 191.47 454.098 191.84 455.358 192.58C456.618 193.3 457.608 194.29 458.328 195.55C459.068 196.81 459.438 198.26 459.438 199.9C459.438 201.54 459.058 203 458.298 204.28C457.538 205.54 456.528 206.54 455.268 207.28C454.028 208 452.648 208.36 451.128 208.36ZM451.128 205.66C452.128 205.66 453.028 205.41 453.828 204.91C454.648 204.41 455.288 203.72 455.748 202.84C456.228 201.96 456.468 200.98 456.468 199.9C456.468 198.8 456.228 197.83 455.748 196.99C455.288 196.13 454.648 195.45 453.828 194.95C453.028 194.43 452.128 194.17 451.128 194.17C450.108 194.17 449.188 194.43 448.368 194.95C447.568 195.45 446.928 196.13 446.448 196.99C445.968 197.83 445.728 198.8 445.728 199.9C445.728 200.98 445.968 201.96 446.448 202.84C446.928 203.72 447.568 204.41 448.368 204.91C449.188 205.41 450.108 205.66 451.128 205.66ZM463.077 208V185.29H465.867V208H463.077ZM475.986 208.36C474.366 208.36 472.956 207.96 471.756 207.16C470.556 206.36 469.706 205.28 469.206 203.92L471.426 202.84C471.886 203.8 472.516 204.56 473.316 205.12C474.116 205.68 475.006 205.96 475.986 205.96C476.866 205.96 477.596 205.75 478.176 205.33C478.756 204.91 479.046 204.36 479.046 203.68C479.046 203.2 478.906 202.82 478.626 202.54C478.366 202.24 478.046 202.01 477.666 201.85C477.286 201.67 476.936 201.54 476.616 201.46L474.186 200.77C472.726 200.35 471.656 199.75 470.976 198.97C470.316 198.19 469.986 197.28 469.986 196.24C469.986 195.28 470.226 194.45 470.706 193.75C471.206 193.03 471.876 192.47 472.716 192.07C473.576 191.67 474.536 191.47 475.596 191.47C477.016 191.47 478.286 191.83 479.406 192.55C480.546 193.27 481.356 194.28 481.836 195.58L479.556 196.63C479.196 195.79 478.656 195.13 477.936 194.65C477.216 194.15 476.406 193.9 475.506 193.9C474.686 193.9 474.036 194.11 473.556 194.53C473.076 194.93 472.836 195.44 472.836 196.06C472.836 196.52 472.956 196.9 473.196 197.2C473.436 197.48 473.726 197.7 474.066 197.86C474.406 198 474.736 198.12 475.056 198.22L477.696 199C479.016 199.38 480.036 199.97 480.756 200.77C481.496 201.57 481.866 202.53 481.866 203.65C481.866 204.55 481.616 205.36 481.116 206.08C480.616 206.8 479.926 207.36 479.046 207.76C478.166 208.16 477.146 208.36 475.986 208.36ZM492.088 208.18C490.508 208.18 489.288 207.73 488.428 206.83C487.588 205.93 487.168 204.66 487.168 203.02V194.5H484.228V191.83H484.828C485.548 191.83 486.118 191.61 486.538 191.17C486.958 190.73 487.168 190.15 487.168 189.43V188.11H489.958V191.83H493.588V194.5H489.958V202.93C489.958 203.47 490.038 203.94 490.198 204.34C490.378 204.74 490.668 205.06 491.068 205.3C491.468 205.52 491.998 205.63 492.658 205.63C492.798 205.63 492.968 205.62 493.168 205.6C493.388 205.58 493.588 205.56 493.768 205.54V208C493.508 208.06 493.218 208.1 492.898 208.12C492.578 208.16 492.308 208.18 492.088 208.18ZM504.413 208.36C502.853 208.36 501.463 207.99 500.243 207.25C499.023 206.51 498.063 205.5 497.363 204.22C496.663 202.92 496.313 201.47 496.313 199.87C496.313 198.25 496.653 196.81 497.333 195.55C498.033 194.29 498.973 193.3 500.153 192.58C501.353 191.84 502.693 191.47 504.173 191.47C505.373 191.47 506.433 191.69 507.353 192.13C508.293 192.55 509.083 193.13 509.723 193.87C510.383 194.59 510.883 195.42 511.223 196.36C511.583 197.28 511.763 198.24 511.763 199.24C511.763 199.46 511.743 199.71 511.703 199.99C511.683 200.25 511.653 200.5 511.613 200.74H498.353V198.34H509.993L508.673 199.42C508.853 198.38 508.753 197.45 508.373 196.63C507.993 195.81 507.433 195.16 506.693 194.68C505.953 194.2 505.113 193.96 504.173 193.96C503.233 193.96 502.373 194.2 501.593 194.68C500.813 195.16 500.203 195.85 499.763 196.75C499.343 197.63 499.173 198.68 499.253 199.9C499.173 201.08 499.353 202.12 499.793 203.02C500.253 203.9 500.893 204.59 501.713 205.09C502.553 205.57 503.463 205.81 504.443 205.81C505.523 205.81 506.433 205.56 507.173 205.06C507.913 204.56 508.513 203.92 508.973 203.14L511.313 204.34C510.993 205.08 510.493 205.76 509.813 206.38C509.153 206.98 508.363 207.46 507.443 207.82C506.543 208.18 505.533 208.36 504.413 208.36ZM515.401 208V191.83H518.191V208H515.401ZM515.401 189.25V185.65H518.191V189.25H515.401ZM522.52 208V191.83H525.25V194.98L524.8 194.71C525.2 193.69 525.84 192.9 526.72 192.34C527.62 191.76 528.67 191.47 529.87 191.47C531.03 191.47 532.06 191.73 532.96 192.25C533.88 192.77 534.6 193.49 535.12 194.41C535.66 195.33 535.93 196.37 535.93 197.53V208H533.11V198.43C533.11 197.53 532.95 196.77 532.63 196.15C532.31 195.53 531.85 195.05 531.25 194.71C530.67 194.35 530 194.17 529.24 194.17C528.48 194.17 527.8 194.35 527.2 194.71C526.62 195.05 526.16 195.54 525.82 196.18C525.48 196.8 525.31 197.55 525.31 198.43V208H522.52ZM223.166 253L230.876 230.65H236.156L243.866 253H239.426L237.836 248.2H229.196L227.576 253H223.166ZM230.366 244.6H236.666L232.946 233.47H234.086L230.366 244.6ZM253.357 259.6C252.137 259.6 251.007 259.4 249.967 259C248.927 258.6 248.027 258.04 247.267 257.32C246.527 256.62 245.987 255.79 245.647 254.83L249.307 253.45C249.547 254.21 250.017 254.82 250.717 255.28C251.437 255.76 252.317 256 253.357 256C254.157 256 254.857 255.85 255.457 255.55C256.077 255.25 256.557 254.81 256.897 254.23C257.237 253.67 257.407 252.99 257.407 252.19V248.47L258.157 249.37C257.597 250.35 256.847 251.09 255.907 251.59C254.967 252.09 253.897 252.34 252.697 252.34C251.177 252.34 249.817 251.99 248.617 251.29C247.417 250.59 246.477 249.63 245.797 248.41C245.117 247.19 244.777 245.82 244.777 244.3C244.777 242.76 245.117 241.39 245.797 240.19C246.477 238.99 247.407 238.05 248.587 237.37C249.767 236.67 251.107 236.32 252.607 236.32C253.827 236.32 254.897 236.58 255.817 237.1C256.757 237.6 257.537 238.33 258.157 239.29L257.617 240.28V236.68H261.337V252.19C261.337 253.61 260.987 254.88 260.287 256C259.607 257.12 258.667 258 257.467 258.64C256.287 259.28 254.917 259.6 253.357 259.6ZM253.177 248.71C254.017 248.71 254.747 248.53 255.367 248.17C256.007 247.79 256.507 247.27 256.867 246.61C257.227 245.95 257.407 245.19 257.407 244.33C257.407 243.49 257.217 242.74 256.837 242.08C256.477 241.4 255.977 240.87 255.337 240.49C254.717 240.11 253.997 239.92 253.177 239.92C252.357 239.92 251.617 240.11 250.957 240.49C250.297 240.87 249.777 241.4 249.397 242.08C249.037 242.74 248.857 243.49 248.857 244.33C248.857 245.17 249.037 245.92 249.397 246.58C249.777 247.24 250.287 247.76 250.927 248.14C251.587 248.52 252.337 248.71 253.177 248.71ZM272.748 253.36C271.068 253.36 269.598 252.98 268.338 252.22C267.078 251.46 266.098 250.43 265.398 249.13C264.698 247.83 264.348 246.39 264.348 244.81C264.348 243.17 264.698 241.72 265.398 240.46C266.118 239.18 267.088 238.17 268.308 237.43C269.548 236.69 270.928 236.32 272.448 236.32C273.728 236.32 274.848 236.53 275.808 236.95C276.788 237.37 277.618 237.95 278.298 238.69C278.978 239.43 279.498 240.28 279.858 241.24C280.218 242.18 280.398 243.2 280.398 244.3C280.398 244.58 280.378 244.87 280.338 245.17C280.318 245.47 280.268 245.73 280.188 245.95H267.588V242.95H277.968L276.108 244.36C276.288 243.44 276.238 242.62 275.958 241.9C275.698 241.18 275.258 240.61 274.638 240.19C274.038 239.77 273.308 239.56 272.448 239.56C271.628 239.56 270.898 239.77 270.258 240.19C269.618 240.59 269.128 241.19 268.788 241.99C268.468 242.77 268.348 243.72 268.428 244.84C268.348 245.84 268.478 246.73 268.818 247.51C269.178 248.27 269.698 248.86 270.378 249.28C271.078 249.7 271.878 249.91 272.778 249.91C273.678 249.91 274.438 249.72 275.058 249.34C275.698 248.96 276.198 248.45 276.558 247.81L279.738 249.37C279.418 250.15 278.918 250.84 278.238 251.44C277.558 252.04 276.748 252.51 275.808 252.85C274.888 253.19 273.868 253.36 272.748 253.36ZM290.032 253V249.4H292.942V253H290.032ZM290.032 240.43V236.83H292.942V240.43H290.032ZM303.059 253V250.96L309.239 244.27C310.459 242.97 311.429 241.9 312.149 241.06C312.889 240.22 313.429 239.47 313.769 238.81C314.109 238.15 314.279 237.45 314.279 236.71C314.279 235.49 313.919 234.55 313.199 233.89C312.479 233.23 311.529 232.9 310.349 232.9C309.149 232.9 308.129 233.25 307.289 233.95C306.449 234.63 305.869 235.6 305.549 236.86L302.879 236.17C303.139 234.97 303.619 233.93 304.319 233.05C305.019 232.17 305.889 231.49 306.929 231.01C307.969 230.53 309.109 230.29 310.349 230.29C311.709 230.29 312.899 230.56 313.919 231.1C314.959 231.62 315.769 232.35 316.349 233.29C316.949 234.23 317.249 235.32 317.249 236.56C317.249 237.38 317.079 238.18 316.739 238.96C316.399 239.74 315.899 240.57 315.239 241.45C314.579 242.31 313.719 243.31 312.659 244.45L307.139 250.45H317.729V253H303.059ZM327.614 259.6C327.254 259.6 326.894 259.57 326.534 259.51C326.174 259.45 325.834 259.35 325.514 259.21V256.72C325.734 256.76 326.004 256.8 326.324 256.84C326.664 256.9 326.994 256.93 327.314 256.93C328.254 256.93 328.964 256.72 329.444 256.3C329.944 255.9 330.414 255.2 330.854 254.2L331.874 251.77L331.814 254.2L324.914 236.83H327.944L333.314 250.63H332.414L337.754 236.83H340.844L333.554 254.92C333.214 255.78 332.774 256.56 332.234 257.26C331.714 257.98 331.074 258.55 330.314 258.97C329.554 259.39 328.654 259.6 327.614 259.6ZM350.473 253.36C348.913 253.36 347.523 252.99 346.303 252.25C345.083 251.51 344.123 250.5 343.423 249.22C342.723 247.92 342.373 246.47 342.373 244.87C342.373 243.25 342.713 241.81 343.393 240.55C344.093 239.29 345.033 238.3 346.213 237.58C347.413 236.84 348.753 236.47 350.233 236.47C351.433 236.47 352.493 236.69 353.413 237.13C354.353 237.55 355.143 238.13 355.783 238.87C356.443 239.59 356.943 240.42 357.283 241.36C357.643 242.28 357.823 243.24 357.823 244.24C357.823 244.46 357.803 244.71 357.763 244.99C357.743 245.25 357.713 245.5 357.673 245.74H344.413V243.34H356.053L354.733 244.42C354.913 243.38 354.813 242.45 354.433 241.63C354.053 240.81 353.493 240.16 352.753 239.68C352.013 239.2 351.173 238.96 350.233 238.96C349.293 238.96 348.433 239.2 347.653 239.68C346.873 240.16 346.263 240.85 345.823 241.75C345.403 242.63 345.233 243.68 345.313 244.9C345.233 246.08 345.413 247.12 345.853 248.02C346.313 248.9 346.953 249.59 347.773 250.09C348.613 250.57 349.523 250.81 350.503 250.81C351.583 250.81 352.493 250.56 353.233 250.06C353.973 249.56 354.573 248.92 355.033 248.14L357.373 249.34C357.053 250.08 356.553 250.76 355.873 251.38C355.213 251.98 354.423 252.46 353.503 252.82C352.603 253.18 351.593 253.36 350.473 253.36ZM365.996 253.36C364.936 253.36 363.996 253.17 363.176 252.79C362.376 252.39 361.746 251.85 361.286 251.17C360.826 250.47 360.596 249.67 360.596 248.77C360.596 247.91 360.776 247.14 361.136 246.46C361.516 245.76 362.096 245.17 362.876 244.69C363.676 244.21 364.676 243.87 365.876 243.67L371.876 242.68V245.02L366.506 245.92C365.466 246.1 364.706 246.43 364.226 246.91C363.766 247.39 363.536 247.98 363.536 248.68C363.536 249.34 363.796 249.89 364.316 250.33C364.856 250.77 365.526 250.99 366.326 250.99C367.346 250.99 368.226 250.78 368.966 250.36C369.726 249.92 370.316 249.33 370.736 248.59C371.176 247.85 371.396 247.03 371.396 246.13V242.02C371.396 241.14 371.066 240.43 370.406 239.89C369.766 239.33 368.916 239.05 367.856 239.05C366.936 239.05 366.116 239.29 365.396 239.77C364.696 240.23 364.176 240.85 363.836 241.63L361.406 240.37C361.706 239.63 362.186 238.97 362.846 238.39C363.506 237.79 364.276 237.32 365.156 236.98C366.036 236.64 366.956 236.47 367.916 236.47C369.156 236.47 370.246 236.71 371.186 237.19C372.126 237.65 372.856 238.3 373.376 239.14C373.916 239.96 374.186 240.92 374.186 242.02V253H371.456V249.94L371.966 250.12C371.626 250.76 371.166 251.32 370.586 251.8C370.006 252.28 369.326 252.66 368.546 252.94C367.766 253.22 366.916 253.36 365.996 253.36ZM378.512 253V236.83H381.242V239.8L380.942 239.38C381.322 238.46 381.902 237.78 382.682 237.34C383.462 236.88 384.412 236.65 385.532 236.65H386.522V239.29H385.112C383.972 239.29 383.052 239.65 382.352 240.37C381.652 241.07 381.302 242.07 381.302 243.37V253H378.512ZM394.79 253.36C393.17 253.36 391.76 252.96 390.56 252.16C389.36 251.36 388.51 250.28 388.01 248.92L390.23 247.84C390.69 248.8 391.32 249.56 392.12 250.12C392.92 250.68 393.81 250.96 394.79 250.96C395.67 250.96 396.4 250.75 396.98 250.33C397.56 249.91 397.85 249.36 397.85 248.68C397.85 248.2 397.71 247.82 397.43 247.54C397.17 247.24 396.85 247.01 396.47 246.85C396.09 246.67 395.74 246.54 395.42 246.46L392.99 245.77C391.53 245.35 390.46 244.75 389.78 243.97C389.12 243.19 388.79 242.28 388.79 241.24C388.79 240.28 389.03 239.45 389.51 238.75C390.01 238.03 390.68 237.47 391.52 237.07C392.38 236.67 393.34 236.47 394.4 236.47C395.82 236.47 397.09 236.83 398.21 237.55C399.35 238.27 400.16 239.28 400.64 240.58L398.36 241.63C398 240.79 397.46 240.13 396.74 239.65C396.02 239.15 395.21 238.9 394.31 238.9C393.49 238.9 392.84 239.11 392.36 239.53C391.88 239.93 391.64 240.44 391.64 241.06C391.64 241.52 391.76 241.9 392 242.2C392.24 242.48 392.53 242.7 392.87 242.86C393.21 243 393.54 243.12 393.86 243.22L396.5 244C397.82 244.38 398.84 244.97 399.56 245.77C400.3 246.57 400.67 247.53 400.67 248.65C400.67 249.55 400.42 250.36 399.92 251.08C399.42 251.8 398.73 252.36 397.85 252.76C396.97 253.16 395.95 253.36 394.79 253.36ZM417.188 253.36C415.628 253.36 414.218 253 412.958 252.28C411.698 251.54 410.698 250.53 409.958 249.25C409.218 247.97 408.848 246.52 408.848 244.9C408.848 243.28 409.208 241.84 409.928 240.58C410.668 239.32 411.668 238.32 412.928 237.58C414.188 236.84 415.608 236.47 417.188 236.47C418.748 236.47 420.158 236.84 421.418 237.58C422.678 238.3 423.668 239.29 424.388 240.55C425.128 241.81 425.498 243.26 425.498 244.9C425.498 246.54 425.118 248 424.358 249.28C423.598 250.54 422.588 251.54 421.328 252.28C420.088 253 418.708 253.36 417.188 253.36ZM417.188 250.66C418.188 250.66 419.088 250.41 419.888 249.91C420.708 249.41 421.348 248.72 421.808 247.84C422.288 246.96 422.528 245.98 422.528 244.9C422.528 243.8 422.288 242.83 421.808 241.99C421.348 241.13 420.708 240.45 419.888 239.95C419.088 239.43 418.188 239.17 417.188 239.17C416.168 239.17 415.248 239.43 414.428 239.95C413.628 240.45 412.988 241.13 412.508 241.99C412.028 242.83 411.788 243.8 411.788 244.9C411.788 245.98 412.028 246.96 412.508 247.84C412.988 248.72 413.628 249.41 414.428 249.91C415.248 250.41 416.168 250.66 417.188 250.66ZM429.137 253V230.29H431.927V253H429.137ZM443.606 253.36C442.086 253.36 440.716 252.99 439.496 252.25C438.296 251.51 437.346 250.5 436.646 249.22C435.946 247.94 435.596 246.51 435.596 244.93C435.596 243.31 435.946 241.87 436.646 240.61C437.346 239.33 438.296 238.32 439.496 237.58C440.716 236.84 442.086 236.47 443.606 236.47C444.946 236.47 446.136 236.76 447.176 237.34C448.216 237.9 449.036 238.66 449.636 239.62L449.186 240.31V230.29H452.006V253H449.276V249.55L449.636 250.03C449.076 251.09 448.256 251.91 447.176 252.49C446.116 253.07 444.926 253.36 443.606 253.36ZM443.846 250.66C444.866 250.66 445.776 250.41 446.576 249.91C447.376 249.41 448.006 248.73 448.466 247.87C448.946 246.99 449.186 246.01 449.186 244.93C449.186 243.83 448.946 242.85 448.466 241.99C448.006 241.11 447.376 240.42 446.576 239.92C445.776 239.42 444.866 239.17 443.846 239.17C442.846 239.17 441.936 239.43 441.116 239.95C440.316 240.45 439.686 241.13 439.226 241.99C438.766 242.83 438.536 243.81 438.536 244.93C438.536 246.01 438.766 246.99 439.226 247.87C439.686 248.73 440.316 249.41 441.116 249.91C441.916 250.41 442.826 250.66 443.846 250.66ZM209.718 298V275.65H213.798V294.4H223.368V298H209.718ZM230.627 298.36C229.487 298.36 228.497 298.17 227.657 297.79C226.817 297.41 226.167 296.87 225.707 296.17C225.247 295.45 225.017 294.62 225.017 293.68C225.017 292.78 225.217 291.98 225.617 291.28C226.017 290.56 226.637 289.96 227.477 289.48C228.317 289 229.377 288.66 230.657 288.46L235.997 287.59V290.59L231.407 291.37C230.627 291.51 230.047 291.76 229.667 292.12C229.287 292.48 229.097 292.95 229.097 293.53C229.097 294.09 229.307 294.54 229.727 294.88C230.167 295.2 230.707 295.36 231.347 295.36C232.167 295.36 232.887 295.19 233.507 294.85C234.147 294.49 234.637 294 234.977 293.38C235.337 292.76 235.517 292.08 235.517 291.34V287.14C235.517 286.44 235.237 285.86 234.677 285.4C234.137 284.92 233.417 284.68 232.517 284.68C231.677 284.68 230.927 284.91 230.267 285.37C229.627 285.81 229.157 286.4 228.857 287.14L225.647 285.58C225.967 284.72 226.467 283.98 227.147 283.36C227.847 282.72 228.667 282.22 229.607 281.86C230.547 281.5 231.567 281.32 232.667 281.32C234.007 281.32 235.187 281.57 236.207 282.07C237.227 282.55 238.017 283.23 238.577 284.11C239.157 284.97 239.447 285.98 239.447 287.14V298H235.727V295.21L236.567 295.15C236.147 295.85 235.647 296.44 235.067 296.92C234.487 297.38 233.827 297.74 233.087 298C232.347 298.24 231.527 298.36 230.627 298.36ZM250.939 298.36C249.319 298.36 247.859 297.99 246.559 297.25C245.279 296.49 244.269 295.47 243.529 294.19C242.789 292.89 242.419 291.43 242.419 289.81C242.419 288.19 242.789 286.74 243.529 285.46C244.269 284.18 245.279 283.17 246.559 282.43C247.859 281.69 249.319 281.32 250.939 281.32C252.099 281.32 253.179 281.53 254.179 281.95C255.179 282.35 256.039 282.91 256.759 283.63C257.499 284.33 258.029 285.17 258.349 286.15L254.899 287.65C254.599 286.83 254.089 286.17 253.369 285.67C252.669 285.17 251.859 284.92 250.939 284.92C250.079 284.92 249.309 285.13 248.629 285.55C247.969 285.97 247.449 286.55 247.069 287.29C246.689 288.03 246.499 288.88 246.499 289.84C246.499 290.8 246.689 291.65 247.069 292.39C247.449 293.13 247.969 293.71 248.629 294.13C249.309 294.55 250.079 294.76 250.939 294.76C251.879 294.76 252.699 294.51 253.399 294.01C254.099 293.51 254.599 292.84 254.899 292L258.349 293.56C258.029 294.48 257.509 295.31 256.789 296.05C256.069 296.77 255.209 297.34 254.209 297.76C253.209 298.16 252.119 298.36 250.939 298.36ZM268.771 298.18C266.931 298.18 265.501 297.68 264.481 296.68C263.481 295.66 262.981 294.23 262.981 292.39V285.19H260.161V281.68H260.461C261.261 281.68 261.881 281.47 262.321 281.05C262.761 280.63 262.981 280.02 262.981 279.22V277.96H266.911V281.68H270.661V285.19H266.911V292.18C266.911 292.72 267.001 293.18 267.181 293.56C267.381 293.94 267.681 294.23 268.081 294.43C268.501 294.63 269.031 294.73 269.671 294.73C269.811 294.73 269.971 294.72 270.151 294.7C270.351 294.68 270.541 294.66 270.721 294.64V298C270.441 298.04 270.121 298.08 269.761 298.12C269.401 298.16 269.071 298.18 268.771 298.18ZM278.615 298.36C277.475 298.36 276.485 298.17 275.645 297.79C274.805 297.41 274.155 296.87 273.695 296.17C273.235 295.45 273.005 294.62 273.005 293.68C273.005 292.78 273.205 291.98 273.605 291.28C274.005 290.56 274.625 289.96 275.465 289.48C276.305 289 277.365 288.66 278.645 288.46L283.985 287.59V290.59L279.395 291.37C278.615 291.51 278.035 291.76 277.655 292.12C277.275 292.48 277.085 292.95 277.085 293.53C277.085 294.09 277.295 294.54 277.715 294.88C278.155 295.2 278.695 295.36 279.335 295.36C280.155 295.36 280.875 295.19 281.495 294.85C282.135 294.49 282.625 294 282.965 293.38C283.325 292.76 283.505 292.08 283.505 291.34V287.14C283.505 286.44 283.225 285.86 282.665 285.4C282.125 284.92 281.405 284.68 280.505 284.68C279.665 284.68 278.915 284.91 278.255 285.37C277.615 285.81 277.145 286.4 276.845 287.14L273.635 285.58C273.955 284.72 274.455 283.98 275.135 283.36C275.835 282.72 276.655 282.22 277.595 281.86C278.535 281.5 279.555 281.32 280.655 281.32C281.995 281.32 283.175 281.57 284.195 282.07C285.215 282.55 286.005 283.23 286.565 284.11C287.145 284.97 287.435 285.98 287.435 287.14V298H283.715V295.21L284.555 295.15C284.135 295.85 283.635 296.44 283.055 296.92C282.475 297.38 281.815 297.74 281.075 298C280.335 298.24 279.515 298.36 278.615 298.36ZM298.214 298.18C296.374 298.18 294.944 297.68 293.924 296.68C292.924 295.66 292.424 294.23 292.424 292.39V285.19H289.604V281.68H289.904C290.704 281.68 291.324 281.47 291.764 281.05C292.204 280.63 292.424 280.02 292.424 279.22V277.96H296.354V281.68H300.104V285.19H296.354V292.18C296.354 292.72 296.444 293.18 296.624 293.56C296.824 293.94 297.124 294.23 297.524 294.43C297.944 294.63 298.474 294.73 299.114 294.73C299.254 294.73 299.414 294.72 299.594 294.7C299.794 294.68 299.984 294.66 300.164 294.64V298C299.884 298.04 299.564 298.08 299.204 298.12C298.844 298.16 298.514 298.18 298.214 298.18ZM303.167 298V281.68H307.097V298H303.167ZM303.167 279.85V275.65H307.097V279.85H303.167ZM318.706 298.36C317.106 298.36 315.646 297.99 314.326 297.25C313.026 296.51 311.986 295.5 311.206 294.22C310.446 292.94 310.066 291.48 310.066 289.84C310.066 288.2 310.446 286.74 311.206 285.46C311.986 284.18 313.026 283.17 314.326 282.43C315.626 281.69 317.086 281.32 318.706 281.32C320.306 281.32 321.756 281.69 323.056 282.43C324.356 283.17 325.386 284.18 326.146 285.46C326.926 286.72 327.316 288.18 327.316 289.84C327.316 291.48 326.926 292.94 326.146 294.22C325.366 295.5 324.326 296.51 323.026 297.25C321.726 297.99 320.286 298.36 318.706 298.36ZM318.706 294.76C319.586 294.76 320.356 294.55 321.016 294.13C321.696 293.71 322.226 293.13 322.606 292.39C323.006 291.63 323.206 290.78 323.206 289.84C323.206 288.88 323.006 288.04 322.606 287.32C322.226 286.58 321.696 286 321.016 285.58C320.356 285.14 319.586 284.92 318.706 284.92C317.806 284.92 317.016 285.14 316.336 285.58C315.656 286 315.116 286.58 314.716 287.32C314.336 288.04 314.146 288.88 314.146 289.84C314.146 290.78 314.336 291.63 314.716 292.39C315.116 293.13 315.656 293.71 316.336 294.13C317.016 294.55 317.806 294.76 318.706 294.76ZM330.296 298V281.68H333.986V284.89L333.686 284.32C334.066 283.34 334.686 282.6 335.546 282.1C336.426 281.58 337.446 281.32 338.606 281.32C339.806 281.32 340.866 281.58 341.786 282.1C342.726 282.62 343.456 283.35 343.976 284.29C344.496 285.21 344.756 286.28 344.756 287.5V298H340.826V288.43C340.826 287.71 340.686 287.09 340.406 286.57C340.126 286.05 339.736 285.65 339.236 285.37C338.756 285.07 338.186 284.92 337.526 284.92C336.886 284.92 336.316 285.07 335.816 285.37C335.316 285.65 334.926 286.05 334.646 286.57C334.366 287.09 334.226 287.71 334.226 288.43V298H330.296ZM354.735 298V294.4H357.645V298H354.735ZM354.735 285.43V281.83H357.645V285.43H354.735ZM367.762 298V295.96L373.942 289.27C375.162 287.97 376.132 286.9 376.852 286.06C377.592 285.22 378.132 284.47 378.472 283.81C378.812 283.15 378.982 282.45 378.982 281.71C378.982 280.49 378.622 279.55 377.902 278.89C377.182 278.23 376.232 277.9 375.052 277.9C373.852 277.9 372.832 278.25 371.992 278.95C371.152 279.63 370.572 280.6 370.252 281.86L367.582 281.17C367.842 279.97 368.322 278.93 369.022 278.05C369.722 277.17 370.592 276.49 371.632 276.01C372.672 275.53 373.812 275.29 375.052 275.29C376.412 275.29 377.602 275.56 378.622 276.1C379.662 276.62 380.472 277.35 381.052 278.29C381.652 279.23 381.952 280.32 381.952 281.56C381.952 282.38 381.782 283.18 381.442 283.96C381.102 284.74 380.602 285.57 379.942 286.45C379.282 287.31 378.422 288.31 377.362 289.45L371.842 295.45H382.432V298H367.762ZM398.016 298.18C396.436 298.18 395.216 297.73 394.356 296.83C393.516 295.93 393.096 294.66 393.096 293.02V284.5H390.156V281.83H390.756C391.476 281.83 392.046 281.61 392.466 281.17C392.886 280.73 393.096 280.15 393.096 279.43V278.11H395.886V281.83H399.516V284.5H395.886V292.93C395.886 293.47 395.966 293.94 396.126 294.34C396.306 294.74 396.596 295.06 396.996 295.3C397.396 295.52 397.926 295.63 398.586 295.63C398.726 295.63 398.896 295.62 399.096 295.6C399.316 295.58 399.516 295.56 399.696 295.54V298C399.436 298.06 399.146 298.1 398.826 298.12C398.506 298.16 398.236 298.18 398.016 298.18ZM403.341 298V281.83H406.131V298H403.341ZM403.341 279.25V275.65H406.131V279.25H403.341ZM410.46 298V281.83H413.19V285.13L412.8 284.62C413.2 283.6 413.84 282.82 414.72 282.28C415.6 281.74 416.59 281.47 417.69 281.47C418.95 281.47 420.08 281.82 421.08 282.52C422.1 283.22 422.8 284.14 423.18 285.28L422.4 285.31C422.82 284.05 423.53 283.1 424.53 282.46C425.53 281.8 426.64 281.47 427.86 281.47C428.98 281.47 429.99 281.73 430.89 282.25C431.81 282.77 432.54 283.49 433.08 284.41C433.62 285.33 433.89 286.37 433.89 287.53V298H431.07V288.43C431.07 287.53 430.91 286.77 430.59 286.15C430.27 285.53 429.83 285.05 429.27 284.71C428.73 284.35 428.09 284.17 427.35 284.17C426.63 284.17 425.98 284.35 425.4 284.71C424.84 285.05 424.39 285.54 424.05 286.18C423.73 286.8 423.57 287.55 423.57 288.43V298H420.75V288.43C420.75 287.53 420.59 286.77 420.27 286.15C419.95 285.53 419.51 285.05 418.95 284.71C418.41 284.35 417.77 284.17 417.03 284.17C416.31 284.17 415.66 284.35 415.08 284.71C414.52 285.05 414.07 285.54 413.73 286.18C413.41 286.8 413.25 287.55 413.25 288.43V298H410.46ZM445.292 298.36C443.732 298.36 442.342 297.99 441.122 297.25C439.902 296.51 438.942 295.5 438.242 294.22C437.542 292.92 437.192 291.47 437.192 289.87C437.192 288.25 437.532 286.81 438.212 285.55C438.912 284.29 439.852 283.3 441.032 282.58C442.232 281.84 443.572 281.47 445.052 281.47C446.252 281.47 447.312 281.69 448.232 282.13C449.172 282.55 449.962 283.13 450.602 283.87C451.262 284.59 451.762 285.42 452.102 286.36C452.462 287.28 452.642 288.24 452.642 289.24C452.642 289.46 452.622 289.71 452.582 289.99C452.562 290.25 452.532 290.5 452.492 290.74H439.232V288.34H450.872L449.552 289.42C449.732 288.38 449.632 287.45 449.252 286.63C448.872 285.81 448.312 285.16 447.572 284.68C446.832 284.2 445.992 283.96 445.052 283.96C444.112 283.96 443.252 284.2 442.472 284.68C441.692 285.16 441.082 285.85 440.642 286.75C440.222 287.63 440.052 288.68 440.132 289.9C440.052 291.08 440.232 292.12 440.672 293.02C441.132 293.9 441.772 294.59 442.592 295.09C443.432 295.57 444.342 295.81 445.322 295.81C446.402 295.81 447.312 295.56 448.052 295.06C448.792 294.56 449.392 293.92 449.852 293.14L452.192 294.34C451.872 295.08 451.372 295.76 450.692 296.38C450.032 296.98 449.242 297.46 448.322 297.82C447.422 298.18 446.412 298.36 445.292 298.36ZM462.07 298.36C460.45 298.36 459.04 297.96 457.84 297.16C456.64 296.36 455.79 295.28 455.29 293.92L457.51 292.84C457.97 293.8 458.6 294.56 459.4 295.12C460.2 295.68 461.09 295.96 462.07 295.96C462.95 295.96 463.68 295.75 464.26 295.33C464.84 294.91 465.13 294.36 465.13 293.68C465.13 293.2 464.99 292.82 464.71 292.54C464.45 292.24 464.13 292.01 463.75 291.85C463.37 291.67 463.02 291.54 462.7 291.46L460.27 290.77C458.81 290.35 457.74 289.75 457.06 288.97C456.4 288.19 456.07 287.28 456.07 286.24C456.07 285.28 456.31 284.45 456.79 283.75C457.29 283.03 457.96 282.47 458.8 282.07C459.66 281.67 460.62 281.47 461.68 281.47C463.1 281.47 464.37 281.83 465.49 282.55C466.63 283.27 467.44 284.28 467.92 285.58L465.64 286.63C465.28 285.79 464.74 285.13 464.02 284.65C463.3 284.15 462.49 283.9 461.59 283.9C460.77 283.9 460.12 284.11 459.64 284.53C459.16 284.93 458.92 285.44 458.92 286.06C458.92 286.52 459.04 286.9 459.28 287.2C459.52 287.48 459.81 287.7 460.15 287.86C460.49 288 460.82 288.12 461.14 288.22L463.78 289C465.1 289.38 466.12 289.97 466.84 290.77C467.58 291.57 467.95 292.53 467.95 293.65C467.95 294.55 467.7 295.36 467.2 296.08C466.7 296.8 466.01 297.36 465.13 297.76C464.25 298.16 463.23 298.36 462.07 298.36Z" fill="black"/>
</svg>
