<svg width="701" height="529" viewBox="0 0 701 529" fill="none" xmlns="http://www.w3.org/2000/svg">
<g clip-path="url(#clip0_43_748)">
<rect width="701" height="529" rx="14.9489" fill="white"/>
<path d="M33.6028 31.5228C33.4844 31.1392 33.3211 30.796 33.1127 30.4929C32.9092 30.1852 32.6629 29.9224 32.3741 29.7046C32.09 29.4868 31.7633 29.3234 31.394 29.2145C31.0247 29.1009 30.6222 29.0441 30.1866 29.0441C29.4054 29.0441 28.7093 29.2406 28.0985 29.6336C27.4877 30.0266 27.0072 30.6042 26.6568 31.3665C26.3111 32.1241 26.1383 33.0474 26.1383 34.1364C26.1383 35.2349 26.3111 36.1653 26.6568 36.9276C27.0024 37.6899 27.483 38.2699 28.0985 38.6677C28.7141 39.0607 29.429 39.2571 30.2434 39.2571C30.9821 39.2571 31.6213 39.1151 32.161 38.831C32.7056 38.5469 33.1246 38.1445 33.4181 37.6236C33.7117 37.0981 33.8585 36.4825 33.8585 35.777L34.4551 35.8694H30.5062V33.8097H36.4082V35.5569C36.4082 36.8021 36.1431 37.8793 35.6127 38.7884C35.0824 39.6975 34.3533 40.3982 33.4252 40.8907C32.4972 41.3784 31.4319 41.6222 30.2292 41.6222C28.8893 41.6222 27.7127 41.3215 26.6994 40.7202C25.6909 40.1142 24.9025 39.2548 24.3343 38.1421C23.7709 37.0247 23.4892 35.6989 23.4892 34.1648C23.4892 32.9906 23.6549 31.9418 23.9863 31.0185C24.3225 30.0952 24.7913 29.3116 25.3926 28.6677C25.9939 28.019 26.6994 27.5266 27.5091 27.1904C28.3187 26.8495 29.1994 26.679 30.1511 26.679C30.956 26.679 31.7065 26.7974 32.4025 27.0341C33.0985 27.2661 33.7164 27.5976 34.2562 28.0285C34.8007 28.4593 35.2482 28.9707 35.5985 29.5625C35.9489 30.1544 36.1786 30.8078 36.2875 31.5228H33.6028ZM38.6556 41.4233V30.5142H41.1485V32.3324H41.2622C41.461 31.7027 41.802 31.2174 42.2849 30.8765C42.7726 30.5308 43.3289 30.358 43.9539 30.358C44.096 30.358 44.2546 30.3651 44.4298 30.3793C44.6097 30.3888 44.7589 30.4053 44.8772 30.429V32.7941C44.7683 32.7562 44.5955 32.7231 44.3588 32.6946C44.1268 32.6615 43.9019 32.6449 43.6841 32.6449C43.2153 32.6449 42.7939 32.7467 42.4199 32.9503C42.0505 33.1492 41.7593 33.4262 41.5463 33.7813C41.3332 34.1364 41.2267 34.546 41.2267 35.01V41.4233H38.6556ZM50.7078 41.6364C49.6424 41.6364 48.7191 41.402 47.9379 40.9333C47.1566 40.4645 46.5506 39.8088 46.1197 38.966C45.6936 38.1232 45.4805 37.1383 45.4805 36.0114C45.4805 34.8845 45.6936 33.8973 46.1197 33.0498C46.5506 32.2022 47.1566 31.5441 47.9379 31.0753C48.7191 30.6066 49.6424 30.3722 50.7078 30.3722C51.7731 30.3722 52.6964 30.6066 53.4777 31.0753C54.2589 31.5441 54.8626 32.2022 55.2887 33.0498C55.7196 33.8973 55.935 34.8845 55.935 36.0114C55.935 37.1383 55.7196 38.1232 55.2887 38.966C54.8626 39.8088 54.2589 40.4645 53.4777 40.9333C52.6964 41.402 51.7731 41.6364 50.7078 41.6364ZM50.722 39.5767C51.2996 39.5767 51.7826 39.4181 52.1708 39.1009C52.5591 38.7789 52.8479 38.3481 53.0373 37.8083C53.2315 37.2685 53.3285 36.6672 53.3285 36.0043C53.3285 35.3367 53.2315 34.733 53.0373 34.1932C52.8479 33.6487 52.5591 33.2155 52.1708 32.8935C51.7826 32.5715 51.2996 32.4106 50.722 32.4106C50.1301 32.4106 49.6377 32.5715 49.2447 32.8935C48.8565 33.2155 48.5653 33.6487 48.3711 34.1932C48.1817 34.733 48.087 35.3367 48.087 36.0043C48.087 36.6672 48.1817 37.2685 48.3711 37.8083C48.5653 38.3481 48.8565 38.7789 49.2447 39.1009C49.6377 39.4181 50.1301 39.5767 50.722 39.5767ZM59.8693 41.4233L56.7869 30.5142H59.4076L61.3252 38.1847H61.4247L63.3849 30.5142H65.9772L67.9375 38.1421H68.044L69.9332 30.5142H72.561L69.4716 41.4233H66.794L64.7485 34.0512H64.5994L62.5539 41.4233H59.8693ZM79.6167 30.5142V32.5029H73.3454V30.5142H79.6167ZM74.8937 27.9006H77.4647V38.1421C77.4647 38.4877 77.5168 38.7529 77.621 38.9375C77.7299 39.1175 77.8719 39.2406 78.0471 39.3069C78.2223 39.3732 78.4164 39.4063 78.6295 39.4063C78.7905 39.4063 78.9373 39.3945 79.0699 39.3708C79.2072 39.3471 79.3113 39.3258 79.3824 39.3069L79.8156 41.3168C79.6783 41.3642 79.4818 41.4162 79.2261 41.4731C78.9752 41.5299 78.6674 41.563 78.3028 41.5725C77.6589 41.5914 77.0788 41.4944 76.5627 41.2813C76.0466 41.0635 75.6371 40.7273 75.3341 40.2728C75.0358 39.8182 74.889 39.25 74.8937 38.5682V27.9006ZM84.3855 35.0313V41.4233H81.8145V26.8779H84.3287V32.3679H84.4565C84.7122 31.7524 85.1075 31.2671 85.6426 30.912C86.1823 30.5521 86.8689 30.3722 87.7022 30.3722C88.4598 30.3722 89.1203 30.5308 89.6838 30.8481C90.2472 31.1653 90.6828 31.6293 90.9906 32.2401C91.3031 32.8509 91.4593 33.5966 91.4593 34.4773V41.4233H88.8883V34.875C88.8883 34.1411 88.6989 33.5706 88.3201 33.1634C87.9461 32.7515 87.4205 32.5455 86.7434 32.5455C86.2889 32.5455 85.8817 32.6449 85.5218 32.8438C85.1667 33.0379 84.8874 33.3196 84.6838 33.689C84.4849 34.0583 84.3855 34.5057 84.3855 35.0313Z" fill="#131313"/>
<path d="M611.22 28.3324H613.035L616.666 34.4432H616.819L620.45 28.3324H622.265L617.535 36.0285V41.4233H615.95V36.0285L611.22 28.3324ZM626.559 41.6279C625.613 41.6279 624.797 41.4191 624.111 41.0015C623.429 40.5796 622.902 39.9915 622.532 39.2373C622.165 38.4787 621.982 37.5966 621.982 36.591C621.982 35.5853 622.165 34.6989 622.532 33.9319C622.902 33.1606 623.418 32.5597 624.079 32.1293C624.743 31.6946 625.519 31.4773 626.405 31.4773C626.917 31.4773 627.422 31.5625 627.92 31.733C628.419 31.9035 628.873 32.1804 629.282 32.564C629.691 32.9432 630.017 33.4461 630.26 34.0725C630.503 34.6989 630.624 35.4702 630.624 36.3864V37.0256H623.056V35.7216H629.09C629.09 35.1677 628.979 34.6733 628.758 34.2387C628.54 33.804 628.229 33.461 627.824 33.2096C627.424 32.9581 626.951 32.8324 626.405 32.8324C625.804 32.8324 625.285 32.9816 624.846 33.2799C624.411 33.5739 624.076 33.9574 623.842 34.4304C623.608 34.9035 623.49 35.4106 623.49 35.9517V36.8211C623.49 37.5625 623.618 38.1911 623.874 38.7067C624.134 39.2181 624.494 39.608 624.954 39.8765C625.414 40.1407 625.949 40.2728 626.559 40.2728C626.955 40.2728 627.313 40.2174 627.633 40.1066C627.956 39.9915 628.236 39.8211 628.47 39.5952C628.704 39.3651 628.885 39.0796 629.013 38.7387L630.471 39.1478C630.317 39.6421 630.059 40.0767 629.697 40.4517C629.335 40.8225 628.887 41.1123 628.355 41.3211C627.822 41.5256 627.223 41.6279 626.559 41.6279ZM635.528 41.6535C634.906 41.6535 634.341 41.5363 633.834 41.3019C633.327 41.0633 632.924 40.7202 632.626 40.2728C632.327 39.8211 632.178 39.2756 632.178 38.6364C632.178 38.0739 632.289 37.6179 632.511 37.2685C632.732 36.9148 633.028 36.6378 633.399 36.4375C633.77 36.2373 634.179 36.0881 634.626 35.9901C635.078 35.8878 635.532 35.8069 635.988 35.7472C636.584 35.6705 637.068 35.613 637.439 35.5746C637.814 35.532 638.087 35.4617 638.257 35.3637C638.432 35.2657 638.519 35.0952 638.519 34.8523V34.8012C638.519 34.1705 638.347 33.6804 638.001 33.331C637.66 32.9816 637.143 32.8069 636.448 32.8069C635.728 32.8069 635.163 32.9645 634.754 33.2799C634.345 33.5952 634.057 33.9319 633.891 34.2898L632.459 33.7785C632.715 33.1819 633.056 32.7174 633.482 32.385C633.913 32.0483 634.381 31.814 634.888 31.6819C635.4 31.5455 635.903 31.4773 636.397 31.4773C636.712 31.4773 637.075 31.5157 637.484 31.5924C637.897 31.6648 638.295 31.8161 638.679 32.0462C639.067 32.2763 639.388 32.6236 639.644 33.0881C639.9 33.5526 640.028 34.1748 640.028 34.9546V41.4233H638.519V40.0938H638.442C638.34 40.3069 638.17 40.5348 637.931 40.7777C637.692 41.0206 637.375 41.2273 636.979 41.3978C636.582 41.5682 636.099 41.6535 635.528 41.6535ZM635.758 40.2983C636.354 40.2983 636.857 40.1812 637.266 39.9468C637.68 39.7124 637.991 39.4098 638.2 39.0391C638.413 38.6684 638.519 38.2785 638.519 37.8694V36.4887C638.455 36.5654 638.315 36.6357 638.097 36.6996C637.884 36.7593 637.637 36.8125 637.356 36.8594C637.079 36.902 636.808 36.9404 636.544 36.9745C636.284 37.0043 636.073 37.0299 635.911 37.0512C635.519 37.1023 635.153 37.1854 634.812 37.3005C634.475 37.4113 634.202 37.5796 633.994 37.8054C633.789 38.027 633.687 38.3296 633.687 38.7131C633.687 39.2373 633.881 39.6336 634.268 39.902C634.66 40.1662 635.157 40.2983 635.758 40.2983ZM642.501 41.4233V31.6052H643.958V33.0881H644.06C644.239 32.6023 644.563 32.2081 645.032 31.9056C645.501 31.603 646.029 31.4517 646.617 31.4517C646.728 31.4517 646.867 31.4539 647.033 31.4581C647.199 31.4624 647.325 31.4688 647.41 31.4773V33.0114C647.359 32.9986 647.242 32.9794 647.058 32.9539C646.879 32.924 646.69 32.9091 646.489 32.9091C646.012 32.9091 645.586 33.0093 645.211 33.2096C644.84 33.4056 644.546 33.6783 644.329 34.0277C644.116 34.3729 644.009 34.7671 644.009 35.2103V41.4233H642.501ZM650.426 28.3324V41.4233H648.918V28.3324H650.426ZM653.881 45.1052C653.625 45.1052 653.397 45.0839 653.197 45.0412C652.996 45.0029 652.858 44.9645 652.781 44.9262L653.165 43.5966C653.531 43.6904 653.855 43.7245 654.136 43.6989C654.417 43.6733 654.667 43.5476 654.884 43.3218C655.106 43.1002 655.308 42.7401 655.491 42.2415L655.773 41.4745L652.142 31.6052H653.778L656.488 39.429H656.591L659.301 31.6052H660.937L656.77 42.8552C656.582 43.3623 656.35 43.782 656.073 44.1144C655.796 44.451 655.474 44.7003 655.108 44.8623C654.746 45.0242 654.336 45.1052 653.881 45.1052Z" fill="#454545"/>
<path d="M668.766 32.7883L672.036 36.0584L675.306 32.7883" stroke="#7D7D7D" stroke-width="0.934307" stroke-linecap="round" stroke-linejoin="round"/>
<line x1="109.906" y1="474.898" x2="109.906" y2="68.8466" stroke="#F1F1F1" stroke-width="0.934306"/>
<path d="M94.0889 501.847V500.653L97.7803 496.829C98.1745 496.413 98.4994 496.049 98.7551 495.737C99.0144 495.421 99.2079 495.121 99.3357 494.837C99.4636 494.553 99.5275 494.251 99.5275 493.931C99.5275 493.569 99.4423 493.256 99.2718 492.994C99.1014 492.727 98.8688 492.523 98.574 492.381C98.2793 492.236 97.9472 492.163 97.5779 492.163C97.1873 492.163 96.8464 492.243 96.5552 492.402C96.264 492.562 96.0403 492.788 95.884 493.079C95.7278 493.37 95.6497 493.711 95.6497 494.102H94.0783C94.0783 493.438 94.231 492.857 94.5364 492.36C94.8418 491.863 95.2608 491.477 95.7935 491.204C96.3262 490.927 96.9316 490.788 97.6099 490.788C98.2953 490.788 98.899 490.925 99.421 491.199C99.9465 491.468 100.357 491.838 100.651 492.307C100.946 492.772 101.094 493.297 101.094 493.883C101.094 494.288 101.017 494.684 100.865 495.071C100.715 495.458 100.454 495.89 100.081 496.366C99.7086 496.838 99.1901 497.411 98.5261 498.086L96.3581 500.355V500.435H101.269V501.847H94.0889ZM106.806 502.028C105.964 502.024 105.245 501.802 104.648 501.362C104.052 500.922 103.596 500.281 103.28 499.439C102.963 498.597 102.805 497.584 102.805 496.397C102.805 495.215 102.963 494.205 103.28 493.367C103.599 492.528 104.057 491.889 104.654 491.449C105.254 491.009 105.971 490.788 106.806 490.788C107.64 490.788 108.356 491.01 108.952 491.454C109.549 491.895 110.005 492.534 110.321 493.372C110.641 494.206 110.801 495.215 110.801 496.397C110.801 497.587 110.643 498.603 110.327 499.444C110.011 500.282 109.554 500.923 108.958 501.367C108.361 501.808 107.644 502.028 106.806 502.028ZM106.806 500.606C107.544 500.606 108.122 500.245 108.537 499.524C108.956 498.803 109.166 497.761 109.166 496.397C109.166 495.492 109.07 494.727 108.878 494.102C108.69 493.473 108.418 492.997 108.063 492.674C107.711 492.347 107.292 492.184 106.806 492.184C106.071 492.184 105.494 492.546 105.075 493.271C104.656 493.995 104.444 495.037 104.441 496.397C104.441 497.307 104.535 498.075 104.723 498.704C104.915 499.329 105.186 499.803 105.538 500.126C105.89 500.446 106.312 500.606 106.806 500.606ZM116.549 490.938V501.847H114.898V492.589H114.834L112.224 494.293V492.717L114.946 490.938H116.549ZM123.028 501.996C122.542 501.989 122.062 501.9 121.59 501.729C121.121 501.559 120.695 501.275 120.312 500.877C119.928 500.479 119.621 499.945 119.39 499.274C119.163 498.603 119.049 497.765 119.049 496.76C119.049 495.808 119.143 494.963 119.332 494.224C119.523 493.486 119.799 492.862 120.157 492.354C120.516 491.843 120.949 491.454 121.457 491.188C121.965 490.922 122.535 490.788 123.167 490.788C123.817 490.788 124.394 490.916 124.898 491.172C125.402 491.428 125.811 491.781 126.123 492.232C126.439 492.683 126.64 493.196 126.725 493.771H125.1C124.99 493.317 124.772 492.946 124.445 492.658C124.119 492.37 123.692 492.227 123.167 492.227C122.368 492.227 121.745 492.575 121.297 493.271C120.853 493.967 120.63 494.934 120.626 496.174H120.706C120.894 495.865 121.125 495.602 121.398 495.385C121.675 495.165 121.984 494.997 122.325 494.879C122.67 494.759 123.032 494.698 123.412 494.698C124.044 494.698 124.616 494.853 125.127 495.162C125.642 495.467 126.052 495.89 126.358 496.429C126.663 496.969 126.816 497.587 126.816 498.283C126.816 498.979 126.658 499.609 126.342 500.174C126.029 500.739 125.589 501.186 125.021 501.516C124.452 501.843 123.788 502.003 123.028 501.996ZM123.023 500.611C123.442 500.611 123.817 500.508 124.147 500.302C124.477 500.096 124.738 499.819 124.93 499.471C125.122 499.123 125.218 498.734 125.218 498.304C125.218 497.885 125.124 497.504 124.935 497.159C124.751 496.815 124.495 496.541 124.168 496.339C123.845 496.136 123.476 496.035 123.06 496.035C122.744 496.035 122.451 496.096 122.181 496.216C121.915 496.337 121.681 496.504 121.478 496.717C121.276 496.93 121.116 497.175 120.999 497.452C120.885 497.726 120.828 498.015 120.828 498.32C120.828 498.729 120.923 499.107 121.111 499.455C121.302 499.803 121.563 500.084 121.894 500.297C122.228 500.506 122.604 500.611 123.023 500.611Z" fill="#7D7D7D"/>
<line x1="186.548" y1="474.898" x2="186.548" y2="68.8466" stroke="#F1F1F1" stroke-width="0.934306"/>
<path d="M171.156 501.847V500.653L174.848 496.829C175.242 496.413 175.567 496.049 175.823 495.737C176.082 495.421 176.275 495.121 176.403 494.837C176.531 494.553 176.595 494.251 176.595 493.931C176.595 493.569 176.51 493.256 176.339 492.994C176.169 492.727 175.936 492.523 175.641 492.381C175.347 492.236 175.015 492.163 174.645 492.163C174.255 492.163 173.914 492.243 173.623 492.402C173.331 492.562 173.108 492.788 172.951 493.079C172.795 493.37 172.717 493.711 172.717 494.102H171.146C171.146 493.438 171.298 492.857 171.604 492.36C171.909 491.863 172.328 491.477 172.861 491.204C173.394 490.927 173.999 490.788 174.677 490.788C175.363 490.788 175.966 490.925 176.488 491.199C177.014 491.468 177.424 491.838 177.719 492.307C178.014 492.772 178.161 493.297 178.161 493.883C178.161 494.288 178.085 494.684 177.932 495.071C177.783 495.458 177.522 495.89 177.149 496.366C176.776 496.838 176.258 497.411 175.593 498.086L173.425 500.355V500.435H178.337V501.847H171.156ZM183.873 502.028C183.032 502.024 182.312 501.802 181.716 501.362C181.119 500.922 180.663 500.281 180.347 499.439C180.031 498.597 179.873 497.584 179.873 496.397C179.873 495.215 180.031 494.205 180.347 493.367C180.667 492.528 181.125 491.889 181.721 491.449C182.321 491.009 183.039 490.788 183.873 490.788C184.708 490.788 185.423 491.01 186.02 491.454C186.616 491.895 187.073 492.534 187.389 493.372C187.708 494.206 187.868 495.215 187.868 496.397C187.868 497.587 187.71 498.603 187.394 499.444C187.078 500.282 186.622 500.923 186.025 501.367C185.429 501.808 184.711 502.028 183.873 502.028ZM183.873 500.606C184.612 500.606 185.189 500.245 185.604 499.524C186.023 498.803 186.233 497.761 186.233 496.397C186.233 495.492 186.137 494.727 185.945 494.102C185.757 493.473 185.485 492.997 185.13 492.674C184.779 492.347 184.36 492.184 183.873 492.184C183.138 492.184 182.561 492.546 182.142 493.271C181.723 493.995 181.512 495.037 181.508 496.397C181.508 497.307 181.602 498.075 181.79 498.704C181.982 499.329 182.254 499.803 182.605 500.126C182.957 500.446 183.38 500.606 183.873 500.606ZM193.616 490.938V501.847H191.965V492.589H191.901L189.291 494.293V492.717L192.013 490.938H193.616ZM196.655 501.847L201.417 492.429V492.349H195.909V490.938H203.121V492.397L198.375 501.847H196.655Z" fill="#7D7D7D"/>
<line x1="263.191" y1="474.898" x2="263.191" y2="68.8466" stroke="#F1F1F1" stroke-width="0.934306"/>
<path d="M247.403 501.847V500.653L251.095 496.829C251.489 496.413 251.814 496.049 252.07 495.737C252.329 495.421 252.522 495.121 252.65 494.837C252.778 494.553 252.842 494.251 252.842 493.931C252.842 493.569 252.757 493.256 252.586 492.994C252.416 492.727 252.183 492.523 251.888 492.381C251.594 492.236 251.262 492.163 250.892 492.163C250.502 492.163 250.161 492.243 249.87 492.402C249.578 492.562 249.355 492.788 249.198 493.079C249.042 493.37 248.964 493.711 248.964 494.102H247.393C247.393 493.438 247.545 492.857 247.851 492.36C248.156 491.863 248.575 491.477 249.108 491.204C249.641 490.927 250.246 490.788 250.924 490.788C251.61 490.788 252.213 490.925 252.735 491.199C253.261 491.468 253.671 491.838 253.966 492.307C254.261 492.772 254.408 493.297 254.408 493.883C254.408 494.288 254.332 494.684 254.179 495.071C254.03 495.458 253.769 495.89 253.396 496.366C253.023 496.838 252.505 497.411 251.841 498.086L249.673 500.355V500.435H254.584V501.847H247.403ZM260.12 502.028C259.279 502.024 258.56 501.802 257.963 501.362C257.366 500.922 256.91 500.281 256.594 499.439C256.278 498.597 256.12 497.584 256.12 496.397C256.12 495.215 256.278 494.205 256.594 493.367C256.914 492.528 257.372 491.889 257.968 491.449C258.568 491.009 259.286 490.788 260.12 490.788C260.955 490.788 261.67 491.01 262.267 491.454C262.864 491.895 263.32 492.534 263.636 493.372C263.955 494.206 264.115 495.215 264.115 496.397C264.115 497.587 263.957 498.603 263.641 499.444C263.325 500.282 262.869 500.923 262.272 501.367C261.676 501.808 260.958 502.028 260.12 502.028ZM260.12 500.606C260.859 500.606 261.436 500.245 261.851 499.524C262.27 498.803 262.48 497.761 262.48 496.397C262.48 495.492 262.384 494.727 262.192 494.102C262.004 493.473 261.732 492.997 261.377 492.674C261.026 492.347 260.607 492.184 260.12 492.184C259.385 492.184 258.808 492.546 258.389 493.271C257.97 493.995 257.759 495.037 257.755 496.397C257.755 497.307 257.849 498.075 258.038 498.704C258.229 499.329 258.501 499.803 258.853 500.126C259.204 500.446 259.627 500.606 260.12 500.606ZM269.863 490.938V501.847H268.212V492.589H268.148L265.538 494.293V492.717L268.26 490.938H269.863ZM276.22 501.996C275.457 501.996 274.782 501.864 274.196 501.602C273.614 501.339 273.157 500.977 272.827 500.515C272.497 500.053 272.334 499.528 272.337 498.938C272.334 498.477 272.428 498.052 272.619 497.665C272.815 497.275 273.079 496.95 273.413 496.69C273.747 496.428 274.12 496.261 274.532 496.19V496.126C273.988 495.994 273.553 495.703 273.227 495.252C272.9 494.801 272.738 494.283 272.742 493.697C272.738 493.139 272.886 492.642 273.184 492.205C273.486 491.765 273.9 491.419 274.425 491.167C274.951 490.915 275.549 490.788 276.22 490.788C276.884 490.788 277.477 490.916 277.999 491.172C278.525 491.424 278.939 491.77 279.241 492.211C279.542 492.647 279.695 493.143 279.699 493.697C279.695 494.283 279.528 494.801 279.198 495.252C278.868 495.703 278.438 495.994 277.909 496.126V496.19C278.317 496.261 278.685 496.428 279.011 496.69C279.342 496.95 279.605 497.275 279.8 497.665C279.999 498.052 280.1 498.477 280.103 498.938C280.1 499.528 279.933 500.053 279.603 500.515C279.272 500.977 278.814 501.339 278.228 501.602C277.646 501.864 276.977 501.996 276.22 501.996ZM276.22 500.648C276.671 500.648 277.062 500.574 277.392 500.424C277.722 500.272 277.978 500.06 278.159 499.791C278.34 499.517 278.433 499.198 278.436 498.832C278.433 498.452 278.333 498.116 278.138 497.825C277.946 497.534 277.685 497.305 277.355 497.138C277.025 496.971 276.646 496.888 276.22 496.888C275.791 496.888 275.409 496.971 275.075 497.138C274.741 497.305 274.478 497.534 274.287 497.825C274.095 498.116 274.001 498.452 274.004 498.832C274.001 499.198 274.088 499.517 274.265 499.791C274.446 500.06 274.704 500.272 275.038 500.424C275.372 500.574 275.766 500.648 276.22 500.648ZM276.22 495.572C276.582 495.572 276.904 495.499 277.184 495.353C277.465 495.208 277.685 495.005 277.845 494.746C278.008 494.487 278.092 494.183 278.095 493.835C278.092 493.494 278.01 493.196 277.85 492.94C277.694 492.685 277.476 492.488 277.195 492.349C276.915 492.207 276.59 492.136 276.22 492.136C275.844 492.136 275.514 492.207 275.23 492.349C274.949 492.488 274.731 492.685 274.574 492.94C274.418 493.196 274.342 493.494 274.345 493.835C274.342 494.183 274.42 494.487 274.58 494.746C274.739 495.005 274.96 495.208 275.24 495.353C275.524 495.499 275.851 495.572 276.22 495.572Z" fill="#7D7D7D"/>
<line x1="339.834" y1="474.898" x2="339.834" y2="68.8466" stroke="#F1F1F1" stroke-width="0.934306"/>
<path d="M324.017 501.847V500.653L327.708 496.829C328.102 496.413 328.427 496.049 328.683 495.737C328.942 495.421 329.136 495.121 329.263 494.837C329.391 494.553 329.455 494.251 329.455 493.931C329.455 493.569 329.37 493.256 329.2 492.994C329.029 492.727 328.797 492.523 328.502 492.381C328.207 492.236 327.875 492.163 327.506 492.163C327.115 492.163 326.774 492.243 326.483 492.402C326.192 492.562 325.968 492.788 325.812 493.079C325.656 493.37 325.577 493.711 325.577 494.102H324.006C324.006 493.438 324.159 492.857 324.464 492.36C324.77 491.863 325.189 491.477 325.721 491.204C326.254 490.927 326.859 490.788 327.538 490.788C328.223 490.788 328.827 490.925 329.349 491.199C329.874 491.468 330.284 491.838 330.579 492.307C330.874 492.772 331.021 493.297 331.021 493.883C331.021 494.288 330.945 494.684 330.792 495.071C330.643 495.458 330.382 495.89 330.009 496.366C329.636 496.838 329.118 497.411 328.454 498.086L326.286 500.355V500.435H331.197V501.847H324.017ZM336.734 502.028C335.892 502.024 335.173 501.802 334.576 501.362C333.98 500.922 333.523 500.281 333.207 499.439C332.891 498.597 332.733 497.584 332.733 496.397C332.733 495.215 332.891 494.205 333.207 493.367C333.527 492.528 333.985 491.889 334.582 491.449C335.182 491.009 335.899 490.788 336.734 490.788C337.568 490.788 338.284 491.01 338.88 491.454C339.477 491.895 339.933 492.534 340.249 493.372C340.569 494.206 340.729 495.215 340.729 496.397C340.729 497.587 340.571 498.603 340.254 499.444C339.938 500.282 339.482 500.923 338.886 501.367C338.289 501.808 337.572 502.028 336.734 502.028ZM336.734 500.606C337.472 500.606 338.049 500.245 338.465 499.524C338.884 498.803 339.093 497.761 339.093 496.397C339.093 495.492 338.997 494.727 338.806 494.102C338.617 493.473 338.346 492.997 337.991 492.674C337.639 492.347 337.22 492.184 336.734 492.184C335.998 492.184 335.421 492.546 335.002 493.271C334.583 493.995 334.372 495.037 334.368 496.397C334.368 497.307 334.463 498.075 334.651 498.704C334.843 499.329 335.114 499.803 335.466 500.126C335.817 500.446 336.24 500.606 336.734 500.606ZM346.477 490.938V501.847H344.825V492.589H344.762L342.151 494.293V492.717L344.873 490.938H346.477ZM352.775 490.788C353.261 490.792 353.741 490.881 354.213 491.055C354.685 491.229 355.112 491.513 355.492 491.907C355.875 492.301 356.181 492.834 356.408 493.505C356.639 494.173 356.756 495.004 356.759 495.998C356.759 496.953 356.663 497.804 356.472 498.549C356.28 499.292 356.005 499.918 355.646 500.43C355.291 500.941 354.859 501.33 354.352 501.596C353.844 501.863 353.272 501.996 352.636 501.996C351.987 501.996 351.41 501.868 350.905 501.612C350.401 501.357 349.991 501.003 349.675 500.552C349.359 500.098 349.162 499.576 349.084 498.986H350.708C350.815 499.455 351.031 499.835 351.358 500.126C351.688 500.414 352.114 500.558 352.636 500.558C353.435 500.558 354.059 500.21 354.506 499.514C354.954 498.814 355.179 497.837 355.183 496.584H355.097C354.913 496.889 354.682 497.152 354.405 497.372C354.131 497.592 353.824 497.763 353.483 497.884C353.143 498.004 352.779 498.065 352.391 498.065C351.763 498.065 351.191 497.91 350.676 497.601C350.161 497.292 349.751 496.868 349.446 496.328C349.14 495.788 348.988 495.172 348.988 494.48C348.988 493.791 349.144 493.166 349.456 492.605C349.772 492.044 350.213 491.6 350.777 491.273C351.346 490.943 352.011 490.781 352.775 490.788ZM352.78 492.173C352.365 492.173 351.99 492.276 351.656 492.482C351.326 492.685 351.065 492.96 350.873 493.308C350.682 493.652 350.586 494.036 350.586 494.459C350.586 494.881 350.678 495.265 350.863 495.609C351.051 495.95 351.307 496.222 351.63 496.424C351.956 496.623 352.329 496.722 352.748 496.722C353.061 496.722 353.352 496.662 353.622 496.541C353.892 496.421 354.128 496.254 354.33 496.041C354.533 495.824 354.691 495.579 354.804 495.305C354.918 495.032 354.975 494.744 354.975 494.443C354.975 494.041 354.879 493.668 354.687 493.324C354.499 492.979 354.24 492.703 353.91 492.493C353.579 492.28 353.203 492.173 352.78 492.173Z" fill="#7D7D7D"/>
<line x1="418.478" y1="474.898" x2="418.478" y2="68.8466" stroke="#F1F1F1" stroke-width="0.934306"/>
<path d="M401.533 501.847V500.653L405.225 496.829C405.619 496.413 405.944 496.049 406.199 495.737C406.459 495.421 406.652 495.121 406.78 494.837C406.908 494.553 406.972 494.251 406.972 493.931C406.972 493.569 406.887 493.256 406.716 492.994C406.546 492.727 406.313 492.523 406.018 492.381C405.724 492.236 405.392 492.163 405.022 492.163C404.632 492.163 404.291 492.243 404 492.402C403.708 492.562 403.485 492.788 403.328 493.079C403.172 493.37 403.094 493.711 403.094 494.102H401.523C401.523 493.438 401.675 492.857 401.981 492.36C402.286 491.863 402.705 491.477 403.238 491.204C403.77 490.927 404.376 490.788 405.054 490.788C405.74 490.788 406.343 490.925 406.865 491.199C407.391 491.468 407.801 491.838 408.096 492.307C408.391 492.772 408.538 493.297 408.538 493.883C408.538 494.288 408.462 494.684 408.309 495.071C408.16 495.458 407.899 495.89 407.526 496.366C407.153 496.838 406.634 497.411 405.97 498.086L403.802 500.355V500.435H408.714V501.847H401.533ZM414.25 502.028C413.409 502.024 412.689 501.802 412.093 501.362C411.496 500.922 411.04 500.281 410.724 499.439C410.408 498.597 410.25 497.584 410.25 496.397C410.25 495.215 410.408 494.205 410.724 493.367C411.043 492.528 411.502 491.889 412.098 491.449C412.698 491.009 413.416 490.788 414.25 490.788C415.085 490.788 415.8 491.01 416.397 491.454C416.993 491.895 417.45 492.534 417.766 493.372C418.085 494.206 418.245 495.215 418.245 496.397C418.245 497.587 418.087 498.603 417.771 499.444C417.455 500.282 416.999 500.923 416.402 501.367C415.806 501.808 415.088 502.028 414.25 502.028ZM414.25 500.606C414.989 500.606 415.566 500.245 415.981 499.524C416.4 498.803 416.61 497.761 416.61 496.397C416.61 495.492 416.514 494.727 416.322 494.102C416.134 493.473 415.862 492.997 415.507 492.674C415.156 492.347 414.737 492.184 414.25 492.184C413.515 492.184 412.938 492.546 412.519 493.271C412.1 493.995 411.889 495.037 411.885 496.397C411.885 497.307 411.979 498.075 412.167 498.704C412.359 499.329 412.631 499.803 412.982 500.126C413.334 500.446 413.757 500.606 414.25 500.606ZM419.855 501.847V500.653L423.546 496.829C423.94 496.413 424.265 496.049 424.521 495.737C424.78 495.421 424.973 495.121 425.101 494.837C425.229 494.553 425.293 494.251 425.293 493.931C425.293 493.569 425.208 493.256 425.037 492.994C424.867 492.727 424.634 492.523 424.34 492.381C424.045 492.236 423.713 492.163 423.344 492.163C422.953 492.163 422.612 492.243 422.321 492.402C422.03 492.562 421.806 492.788 421.65 493.079C421.493 493.37 421.415 493.711 421.415 494.102H419.844C419.844 493.438 419.997 492.857 420.302 492.36C420.607 491.863 421.026 491.477 421.559 491.204C422.092 490.927 422.697 490.788 423.375 490.788C424.061 490.788 424.665 490.925 425.187 491.199C425.712 491.468 426.122 491.838 426.417 492.307C426.712 492.772 426.859 493.297 426.859 493.883C426.859 494.288 426.783 494.684 426.63 495.071C426.481 495.458 426.22 495.89 425.847 496.366C425.474 496.838 424.956 497.411 424.292 498.086L422.124 500.355V500.435H427.035V501.847H419.855ZM432.571 502.028C431.73 502.024 431.011 501.802 430.414 501.362C429.817 500.922 429.361 500.281 429.045 499.439C428.729 498.597 428.571 497.584 428.571 496.397C428.571 495.215 428.729 494.205 429.045 493.367C429.365 492.528 429.823 491.889 430.419 491.449C431.02 491.009 431.737 490.788 432.571 490.788C433.406 490.788 434.121 491.01 434.718 491.454C435.315 491.895 435.771 492.534 436.087 493.372C436.407 494.206 436.566 495.215 436.566 496.397C436.566 497.587 436.408 498.603 436.092 499.444C435.776 500.282 435.32 500.923 434.723 501.367C434.127 501.808 433.409 502.028 432.571 502.028ZM432.571 500.606C433.31 500.606 433.887 500.245 434.303 499.524C434.722 498.803 434.931 497.761 434.931 496.397C434.931 495.492 434.835 494.727 434.643 494.102C434.455 493.473 434.184 492.997 433.828 492.674C433.477 492.347 433.058 492.184 432.571 492.184C431.836 492.184 431.259 492.546 430.84 493.271C430.421 493.995 430.21 495.037 430.206 496.397C430.206 497.307 430.3 498.075 430.489 498.704C430.68 499.329 430.952 499.803 431.304 500.126C431.655 500.446 432.078 500.606 432.571 500.606Z" fill="#7D7D7D"/>
<line x1="497.121" y1="474.898" x2="497.121" y2="68.8466" stroke="#F1F1F1" stroke-width="0.934306"/>
<path d="M481.472 501.847V500.653L485.164 496.829C485.558 496.413 485.883 496.049 486.138 495.737C486.398 495.421 486.591 495.121 486.719 494.837C486.847 494.553 486.911 494.251 486.911 493.931C486.911 493.569 486.826 493.256 486.655 492.994C486.485 492.727 486.252 492.523 485.957 492.381C485.663 492.236 485.331 492.163 484.961 492.163C484.571 492.163 484.23 492.243 483.939 492.402C483.647 492.562 483.424 492.788 483.267 493.079C483.111 493.37 483.033 493.711 483.033 494.102H481.462C481.462 493.438 481.614 492.857 481.92 492.36C482.225 491.863 482.644 491.477 483.177 491.204C483.709 490.927 484.315 490.788 484.993 490.788C485.679 490.788 486.282 490.925 486.804 491.199C487.33 491.468 487.74 491.838 488.035 492.307C488.329 492.772 488.477 493.297 488.477 493.883C488.477 494.288 488.401 494.684 488.248 495.071C488.099 495.458 487.838 495.89 487.465 496.366C487.092 496.838 486.573 497.411 485.909 498.086L483.741 500.355V500.435H488.653V501.847H481.472ZM494.189 502.028C493.347 502.024 492.628 501.802 492.032 501.362C491.435 500.922 490.979 500.281 490.663 499.439C490.347 498.597 490.189 497.584 490.189 496.397C490.189 495.215 490.347 494.205 490.663 493.367C490.982 492.528 491.441 491.889 492.037 491.449C492.637 491.009 493.355 490.788 494.189 490.788C495.024 490.788 495.739 491.01 496.336 491.454C496.932 491.895 497.389 492.534 497.705 493.372C498.024 494.206 498.184 495.215 498.184 496.397C498.184 497.587 498.026 498.603 497.71 499.444C497.394 500.282 496.938 500.923 496.341 501.367C495.745 501.808 495.027 502.028 494.189 502.028ZM494.189 500.606C494.928 500.606 495.505 500.245 495.92 499.524C496.339 498.803 496.549 497.761 496.549 496.397C496.549 495.492 496.453 494.727 496.261 494.102C496.073 493.473 495.801 492.997 495.446 492.674C495.095 492.347 494.676 492.184 494.189 492.184C493.454 492.184 492.877 492.546 492.458 493.271C492.039 493.995 491.828 495.037 491.824 496.397C491.824 497.307 491.918 498.075 492.106 498.704C492.298 499.329 492.57 499.803 492.921 500.126C493.273 500.446 493.695 500.606 494.189 500.606ZM499.793 501.847V500.653L503.485 496.829C503.879 496.413 504.204 496.049 504.46 495.737C504.719 495.421 504.912 495.121 505.04 494.837C505.168 494.553 505.232 494.251 505.232 493.931C505.232 493.569 505.147 493.256 504.976 492.994C504.806 492.727 504.573 492.523 504.279 492.381C503.984 492.236 503.652 492.163 503.282 492.163C502.892 492.163 502.551 492.243 502.26 492.402C501.969 492.562 501.745 492.788 501.589 493.079C501.432 493.37 501.354 493.711 501.354 494.102H499.783C499.783 493.438 499.936 492.857 500.241 492.36C500.546 491.863 500.965 491.477 501.498 491.204C502.031 490.927 502.636 490.788 503.314 490.788C504 490.788 504.604 490.925 505.126 491.199C505.651 491.468 506.061 491.838 506.356 492.307C506.651 492.772 506.798 493.297 506.798 493.883C506.798 494.288 506.722 494.684 506.569 495.071C506.42 495.458 506.159 495.89 505.786 496.366C505.413 496.838 504.895 497.411 504.231 498.086L502.063 500.355V500.435H506.974V501.847H499.793ZM512.851 490.938V501.847H511.2V492.589H511.136L508.526 494.293V492.717L511.248 490.938H512.851Z" fill="#7D7D7D"/>
<line x1="575.763" y1="474.898" x2="575.763" y2="68.8466" stroke="#F1F1F1" stroke-width="0.934306"/>
<path d="M559.06 501.847V500.653L562.752 496.829C563.146 496.413 563.471 496.049 563.726 495.737C563.986 495.421 564.179 495.121 564.307 494.837C564.435 494.553 564.499 494.251 564.499 493.931C564.499 493.569 564.413 493.256 564.243 492.994C564.073 492.727 563.84 492.523 563.545 492.381C563.25 492.236 562.918 492.163 562.549 492.163C562.158 492.163 561.818 492.243 561.526 492.402C561.235 492.562 561.011 492.788 560.855 493.079C560.699 493.37 560.621 493.711 560.621 494.102H559.049C559.049 493.438 559.202 492.857 559.508 492.36C559.813 491.863 560.232 491.477 560.765 491.204C561.297 490.927 561.903 490.788 562.581 490.788C563.266 490.788 563.87 490.925 564.392 491.199C564.918 491.468 565.328 491.838 565.623 492.307C565.917 492.772 566.065 493.297 566.065 493.883C566.065 494.288 565.988 494.684 565.836 495.071C565.687 495.458 565.426 495.89 565.053 496.366C564.68 496.838 564.161 497.411 563.497 498.086L561.329 500.355V500.435H566.241V501.847H559.06ZM571.777 502.028C570.935 502.024 570.216 501.802 569.62 501.362C569.023 500.922 568.567 500.281 568.251 499.439C567.935 498.597 567.777 497.584 567.777 496.397C567.777 495.215 567.935 494.205 568.251 493.367C568.57 492.528 569.028 491.889 569.625 491.449C570.225 491.009 570.942 490.788 571.777 490.788C572.612 490.788 573.327 491.01 573.924 491.454C574.52 491.895 574.977 492.534 575.293 493.372C575.612 494.206 575.772 495.215 575.772 496.397C575.772 497.587 575.614 498.603 575.298 499.444C574.982 500.282 574.526 500.923 573.929 501.367C573.332 501.808 572.615 502.028 571.777 502.028ZM571.777 500.606C572.516 500.606 573.093 500.245 573.508 499.524C573.927 498.803 574.137 497.761 574.137 496.397C574.137 495.492 574.041 494.727 573.849 494.102C573.661 493.473 573.389 492.997 573.034 492.674C572.683 492.347 572.264 492.184 571.777 492.184C571.042 492.184 570.465 492.546 570.046 493.271C569.627 493.995 569.415 495.037 569.412 496.397C569.412 497.307 569.506 498.075 569.694 498.704C569.886 499.329 570.158 499.803 570.509 500.126C570.861 500.446 571.283 500.606 571.777 500.606ZM577.381 501.847V500.653L581.073 496.829C581.467 496.413 581.792 496.049 582.048 495.737C582.307 495.421 582.5 495.121 582.628 494.837C582.756 494.553 582.82 494.251 582.82 493.931C582.82 493.569 582.735 493.256 582.564 492.994C582.394 492.727 582.161 492.523 581.866 492.381C581.572 492.236 581.24 492.163 580.87 492.163C580.48 492.163 580.139 492.243 579.848 492.402C579.556 492.562 579.333 492.788 579.176 493.079C579.02 493.37 578.942 493.711 578.942 494.102H577.371C577.371 493.438 577.523 492.857 577.829 492.36C578.134 491.863 578.553 491.477 579.086 491.204C579.619 490.927 580.224 490.788 580.902 490.788C581.588 490.788 582.191 490.925 582.713 491.199C583.239 491.468 583.649 491.838 583.944 492.307C584.239 492.772 584.386 493.297 584.386 493.883C584.386 494.288 584.31 494.684 584.157 495.071C584.008 495.458 583.747 495.89 583.374 496.366C583.001 496.838 582.483 497.411 581.819 498.086L579.651 500.355V500.435H584.562V501.847H577.381ZM586.3 501.847V500.653L589.992 496.829C590.386 496.413 590.711 496.049 590.967 495.737C591.226 495.421 591.419 495.121 591.547 494.837C591.675 494.553 591.739 494.251 591.739 493.931C591.739 493.569 591.654 493.256 591.483 492.994C591.313 492.727 591.08 492.523 590.785 492.381C590.491 492.236 590.159 492.163 589.789 492.163C589.399 492.163 589.058 492.243 588.767 492.402C588.475 492.562 588.252 492.788 588.095 493.079C587.939 493.37 587.861 493.711 587.861 494.102H586.29C586.29 493.438 586.442 492.857 586.748 492.36C587.053 491.863 587.472 491.477 588.005 491.204C588.538 490.927 589.143 490.788 589.821 490.788C590.507 490.788 591.11 490.925 591.632 491.199C592.158 491.468 592.568 491.838 592.863 492.307C593.158 492.772 593.305 493.297 593.305 493.883C593.305 494.288 593.229 494.684 593.076 495.071C592.927 495.458 592.666 495.89 592.293 496.366C591.92 496.838 591.402 497.411 590.737 498.086L588.569 500.355V500.435H593.481V501.847H586.3Z" fill="#7D7D7D"/>
<line x1="655.406" y1="474.898" x2="655.406" y2="68.8466" stroke="#F1F1F1" stroke-width="0.934306"/>
<path d="M638.468 501.847V500.653L642.16 496.829C642.554 496.413 642.879 496.049 643.135 495.737C643.394 495.421 643.587 495.121 643.715 494.837C643.843 494.553 643.907 494.251 643.907 493.931C643.907 493.569 643.822 493.256 643.651 492.994C643.481 492.727 643.248 492.523 642.953 492.381C642.659 492.236 642.327 492.163 641.957 492.163C641.567 492.163 641.226 492.243 640.935 492.402C640.643 492.562 640.42 492.788 640.263 493.079C640.107 493.37 640.029 493.711 640.029 494.102H638.458C638.458 493.438 638.61 492.857 638.916 492.36C639.221 491.863 639.64 491.477 640.173 491.204C640.706 490.927 641.311 490.788 641.989 490.788C642.675 490.788 643.278 490.925 643.8 491.199C644.326 491.468 644.736 491.838 645.031 492.307C645.326 492.772 645.473 493.297 645.473 493.883C645.473 494.288 645.397 494.684 645.244 495.071C645.095 495.458 644.834 495.89 644.461 496.366C644.088 496.838 643.57 497.411 642.905 498.086L640.738 500.355V500.435H645.649V501.847H638.468ZM651.185 502.028C650.344 502.024 649.624 501.802 649.028 501.362C648.431 500.922 647.975 500.281 647.659 499.439C647.343 498.597 647.185 497.584 647.185 496.397C647.185 495.215 647.343 494.205 647.659 493.367C647.979 492.528 648.437 491.889 649.033 491.449C649.633 491.009 650.351 490.788 651.185 490.788C652.02 490.788 652.735 491.01 653.332 491.454C653.928 491.895 654.385 492.534 654.701 493.372C655.02 494.206 655.18 495.215 655.18 496.397C655.18 497.587 655.022 498.603 654.706 499.444C654.39 500.282 653.934 500.923 653.337 501.367C652.741 501.808 652.023 502.028 651.185 502.028ZM651.185 500.606C651.924 500.606 652.501 500.245 652.916 499.524C653.335 498.803 653.545 497.761 653.545 496.397C653.545 495.492 653.449 494.727 653.257 494.102C653.069 493.473 652.797 492.997 652.442 492.674C652.091 492.347 651.672 492.184 651.185 492.184C650.45 492.184 649.873 492.546 649.454 493.271C649.035 493.995 648.824 495.037 648.82 496.397C648.82 497.307 648.914 498.075 649.102 498.704C649.294 499.329 649.566 499.803 649.917 500.126C650.269 500.446 650.692 500.606 651.185 500.606ZM656.79 501.847V500.653L660.481 496.829C660.875 496.413 661.2 496.049 661.456 495.737C661.715 495.421 661.909 495.121 662.036 494.837C662.164 494.553 662.228 494.251 662.228 493.931C662.228 493.569 662.143 493.256 661.972 492.994C661.802 492.727 661.569 492.523 661.275 492.381C660.98 492.236 660.648 492.163 660.279 492.163C659.888 492.163 659.547 492.243 659.256 492.402C658.965 492.562 658.741 492.788 658.585 493.079C658.428 493.37 658.35 493.711 658.35 494.102H656.779C656.779 493.438 656.932 492.857 657.237 492.36C657.542 491.863 657.961 491.477 658.494 491.204C659.027 490.927 659.632 490.788 660.311 490.788C660.996 490.788 661.6 490.925 662.122 491.199C662.647 491.468 663.057 491.838 663.352 492.307C663.647 492.772 663.794 493.297 663.794 493.883C663.794 494.288 663.718 494.684 663.565 495.071C663.416 495.458 663.155 495.89 662.782 496.366C662.409 496.838 661.891 497.411 661.227 498.086L659.059 500.355V500.435H663.97V501.847H656.79ZM669.506 501.996C668.775 501.996 668.122 501.87 667.546 501.618C666.974 501.366 666.522 501.016 666.188 500.568C665.858 500.117 665.68 499.595 665.655 499.002H667.328C667.349 499.325 667.457 499.606 667.653 499.844C667.852 500.078 668.111 500.259 668.43 500.387C668.75 500.515 669.105 500.579 669.496 500.579C669.925 500.579 670.305 500.504 670.636 500.355C670.97 500.206 671.231 499.998 671.419 499.732C671.607 499.462 671.701 499.151 671.701 498.8C671.701 498.434 671.607 498.113 671.419 497.836C671.234 497.555 670.962 497.335 670.604 497.175C670.249 497.015 669.819 496.935 669.315 496.935H668.393V495.593H669.315C669.72 495.593 670.075 495.52 670.38 495.375C670.689 495.229 670.93 495.027 671.104 494.767C671.278 494.505 671.365 494.198 671.365 493.846C671.365 493.509 671.289 493.216 671.136 492.967C670.987 492.715 670.774 492.518 670.497 492.376C670.224 492.234 669.901 492.163 669.528 492.163C669.173 492.163 668.841 492.228 668.532 492.36C668.226 492.488 667.978 492.672 667.786 492.914C667.594 493.152 667.491 493.438 667.477 493.771H665.884C665.902 493.182 666.076 492.663 666.406 492.216C666.74 491.769 667.18 491.419 667.727 491.167C668.274 490.915 668.881 490.788 669.549 490.788C670.249 490.788 670.852 490.925 671.36 491.199C671.872 491.468 672.266 491.829 672.543 492.28C672.823 492.731 672.962 493.225 672.958 493.761C672.962 494.372 672.791 494.89 672.447 495.316C672.106 495.742 671.651 496.028 671.083 496.174V496.259C671.808 496.369 672.369 496.657 672.766 497.122C673.168 497.587 673.367 498.164 673.363 498.853C673.367 499.453 673.2 499.991 672.862 500.467C672.528 500.943 672.072 501.318 671.493 501.591C670.914 501.861 670.252 501.996 669.506 501.996Z" fill="#7D7D7D"/>
<path d="M30.112 71.9376V82.8467H28.4608V73.5889H28.3968L25.7868 75.2934V73.7167L28.5087 71.9376H30.112ZM36.5807 83.0278C35.7391 83.0242 35.02 82.8023 34.4234 82.3619C33.8268 81.9216 33.3705 81.2806 33.0544 80.439C32.7384 79.5974 32.5803 78.5835 32.5803 77.3975C32.5803 76.2149 32.7384 75.2046 33.0544 74.3666C33.374 73.5285 33.8321 72.8893 34.4287 72.449C35.0288 72.0086 35.7462 71.7884 36.5807 71.7884C37.4152 71.7884 38.1308 72.0104 38.7273 72.4543C39.3239 72.8946 39.7803 73.5338 40.0963 74.3719C40.4159 75.2064 40.5757 76.2149 40.5757 77.3975C40.5757 78.5871 40.4177 79.6027 40.1016 80.4443C39.7856 81.2824 39.3293 81.9234 38.7327 82.3673C38.1361 82.8076 37.4187 83.0278 36.5807 83.0278ZM36.5807 81.6056C37.3193 81.6056 37.8964 81.2451 38.3119 80.5242C38.7309 79.8034 38.9404 78.7611 38.9404 77.3975C38.9404 76.4919 38.8445 75.7267 38.6528 75.1017C38.4646 74.4731 38.1929 73.9972 37.8378 73.6741C37.4862 73.3474 37.0672 73.184 36.5807 73.184C35.8456 73.184 35.2685 73.5463 34.8495 74.2707C34.4305 74.9951 34.2192 76.0374 34.2156 77.3975C34.2156 78.3066 34.3097 79.0754 34.4979 79.7039C34.6897 80.3289 34.9614 80.803 35.3129 81.1262C35.6645 81.4458 36.0871 81.6056 36.5807 81.6056ZM45.983 83.0278C45.1414 83.0242 44.4223 82.8023 43.8257 82.3619C43.2291 81.9216 42.7728 81.2806 42.4567 80.439C42.1407 79.5974 41.9827 78.5835 41.9827 77.3975C41.9827 76.2149 42.1407 75.2046 42.4567 74.3666C42.7763 73.5285 43.2344 72.8893 43.831 72.449C44.4312 72.0086 45.1485 71.7884 45.983 71.7884C46.8175 71.7884 47.5331 72.0104 48.1297 72.4543C48.7263 72.8946 49.1826 73.5338 49.4986 74.3719C49.8182 75.2064 49.978 76.2149 49.978 77.3975C49.978 78.5871 49.82 79.6027 49.504 80.4443C49.1879 81.2824 48.7316 81.9234 48.135 82.3673C47.5384 82.8076 46.8211 83.0278 45.983 83.0278ZM45.983 81.6056C46.7216 81.6056 47.2987 81.2451 47.7142 80.5242C48.1332 79.8034 48.3427 78.7611 48.3427 77.3975C48.3427 76.4919 48.2469 75.7267 48.0551 75.1017C47.8669 74.4731 47.5952 73.9972 47.2401 73.6741C46.8885 73.3474 46.4695 73.184 45.983 73.184C45.2479 73.184 44.6709 73.5463 44.2518 74.2707C43.8328 74.9951 43.6215 76.0374 43.618 77.3975C43.618 78.3066 43.7121 79.0754 43.9003 79.7039C44.092 80.3289 44.3637 80.803 44.7153 81.1262C45.0668 81.4458 45.4894 81.6056 45.983 81.6056ZM53.0735 80.0715L53.0629 78.1272H53.3399L56.5998 74.6649H58.5068L54.7887 78.6066H54.5384L53.0735 80.0715ZM51.6087 82.8467V71.9376H53.2014V82.8467H51.6087ZM56.7756 82.8467L53.8459 78.9582L54.9432 77.8449L58.7305 82.8467H56.7756Z" fill="#7D7D7D"/>
<path d="M62.5977 75.7498H454.539" stroke="#F1F1F1" stroke-width="0.934306"/>
<path d="M27.074 180.985C26.4064 180.985 25.8063 180.857 25.2736 180.601C24.7445 180.342 24.3219 179.987 24.0059 179.536C23.6898 179.085 23.5211 178.57 23.4998 177.991H25.0978C25.1369 178.46 25.3446 178.845 25.7211 179.147C26.0975 179.449 26.5485 179.6 27.074 179.6C27.4931 179.6 27.8642 179.504 28.1873 179.312C28.514 179.117 28.7697 178.849 28.9544 178.508C29.1426 178.167 29.2367 177.778 29.2367 177.341C29.2367 176.897 29.1408 176.502 28.949 176.154C28.7573 175.806 28.4927 175.532 28.1554 175.333C27.8216 175.134 27.438 175.033 27.0048 175.03C26.6745 175.03 26.3425 175.086 26.0087 175.2C25.6749 175.314 25.405 175.463 25.199 175.647L23.6916 175.424L24.3042 169.927H30.302V171.338H25.6731L25.3269 174.39H25.3908C25.6039 174.184 25.8862 174.012 26.2377 173.874C26.5929 173.735 26.9728 173.666 27.3777 173.666C28.0417 173.666 28.633 173.824 29.1515 174.14C29.6735 174.456 30.0836 174.888 30.3819 175.434C30.6838 175.978 30.8329 176.603 30.8294 177.309C30.8329 178.016 30.6731 178.646 30.35 179.2C30.0304 179.754 29.5865 180.191 29.0183 180.511C28.4537 180.827 27.8056 180.985 27.074 180.985ZM36.2926 181.017C35.451 181.013 34.7319 180.791 34.1353 180.351C33.5387 179.911 33.0824 179.27 32.7663 178.428C32.4503 177.586 32.2922 176.573 32.2922 175.386C32.2922 174.204 32.4503 173.194 32.7663 172.356C33.0859 171.518 33.544 170.878 34.1406 170.438C34.7407 169.998 35.4581 169.777 36.2926 169.777C37.1271 169.777 37.8427 169.999 38.4393 170.443C39.0358 170.884 39.4922 171.523 39.8082 172.361C40.1278 173.195 40.2876 174.204 40.2876 175.386C40.2876 176.576 40.1296 177.592 39.8135 178.433C39.4975 179.271 39.0412 179.912 38.4446 180.356C37.848 180.797 37.1307 181.017 36.2926 181.017ZM36.2926 179.595C37.0312 179.595 37.6083 179.234 38.0238 178.513C38.4428 177.792 38.6523 176.75 38.6523 175.386C38.6523 174.481 38.5564 173.716 38.3647 173.091C38.1765 172.462 37.9048 171.986 37.5497 171.663C37.1981 171.336 36.7791 171.173 36.2926 171.173C35.5575 171.173 34.9805 171.535 34.5614 172.26C34.1424 172.984 33.9311 174.026 33.9275 175.386C33.9275 176.296 34.0216 177.064 34.2099 177.693C34.4016 178.318 34.6733 178.792 35.0248 179.115C35.3764 179.435 35.799 179.595 36.2926 179.595ZM43.3831 178.06L43.3725 176.116H43.6495L46.9094 172.654H48.8164L45.0983 176.596H44.848L43.3831 178.06ZM41.9183 180.836V169.927H43.511V180.836H41.9183ZM47.0852 180.836L44.1555 176.947L45.2528 175.834L49.0401 180.836H47.0852Z" fill="#7D7D7D"/>
<path d="M62.5996 173.5H454.541" stroke="#F1F1F1" stroke-width="0.934306"/>
<path d="M23.4732 278.839V277.646L27.1646 273.822C27.5588 273.406 27.8837 273.042 28.1394 272.73C28.3986 272.414 28.5922 272.114 28.72 271.829C28.8478 271.545 28.9118 271.243 28.9118 270.924C28.9118 270.562 28.8265 270.249 28.6561 269.986C28.4856 269.72 28.253 269.516 27.9583 269.374C27.6635 269.228 27.3315 269.155 26.9622 269.155C26.5716 269.155 26.2306 269.235 25.9395 269.395C25.6483 269.555 25.4245 269.78 25.2683 270.072C25.112 270.363 25.0339 270.704 25.0339 271.094H23.4625C23.4625 270.43 23.6152 269.85 23.9206 269.352C24.226 268.855 24.6451 268.47 25.1777 268.197C25.7104 267.92 26.3159 267.781 26.9941 267.781C27.6795 267.781 28.2832 267.918 28.8052 268.191C29.3308 268.461 29.7409 268.83 30.0357 269.299C30.3304 269.764 30.4778 270.29 30.4778 270.876C30.4778 271.281 30.4015 271.677 30.2488 272.064C30.0996 272.451 29.8386 272.882 29.4657 273.358C29.0929 273.83 28.5744 274.404 27.9103 275.079L25.7424 277.348V277.428H30.6536V278.839H23.4732ZM36.1901 279.02C35.3484 279.017 34.6293 278.795 34.0327 278.355C33.4362 277.914 32.9798 277.273 32.6638 276.432C32.3477 275.59 32.1897 274.576 32.1897 273.39C32.1897 272.208 32.3477 271.197 32.6638 270.359C32.9834 269.521 33.4415 268.882 34.0381 268.442C34.6382 268.001 35.3555 267.781 36.1901 267.781C37.0246 267.781 37.7401 268.003 38.3367 268.447C38.9333 268.887 39.3896 269.527 39.7057 270.365C40.0253 271.199 40.1851 272.208 40.1851 273.39C40.1851 274.58 40.0271 275.595 39.711 276.437C39.395 277.275 38.9386 277.916 38.342 278.36C37.7455 278.8 37.0281 279.02 36.1901 279.02ZM36.1901 277.598C36.9287 277.598 37.5058 277.238 37.9212 276.517C38.3403 275.796 38.5498 274.754 38.5498 273.39C38.5498 272.485 38.4539 271.719 38.2621 271.094C38.0739 270.466 37.8023 269.99 37.4472 269.667C37.0956 269.34 36.6766 269.177 36.1901 269.177C35.455 269.177 34.8779 269.539 34.4589 270.263C34.0398 270.988 33.8286 272.03 33.825 273.39C33.825 274.299 33.9191 275.068 34.1073 275.697C34.2991 276.322 34.5707 276.796 34.9223 277.119C35.2739 277.438 35.6964 277.598 36.1901 277.598ZM43.2806 276.064L43.2699 274.12H43.5469L46.8069 270.658H48.7138L44.9958 274.599H44.7454L43.2806 276.064ZM41.8157 278.839V267.93H43.4084V278.839H41.8157ZM46.9827 278.839L44.053 274.951L45.1503 273.838L48.9376 278.839H46.9827Z" fill="#7D7D7D"/>
<path d="M62.5996 272.208H454.541" stroke="#F1F1F1" stroke-width="0.934306"/>
<path d="M27.612 365.934V376.843H25.9608V367.585H25.8968L23.2868 369.29V367.713L26.0087 365.934H27.612ZM34.0807 377.024C33.2391 377.021 32.52 376.799 31.9234 376.358C31.3268 375.918 30.8705 375.277 30.5544 374.435C30.2384 373.594 30.0803 372.58 30.0803 371.394C30.0803 370.211 30.2384 369.201 30.5544 368.363C30.874 367.525 31.3321 366.886 31.9287 366.445C32.5288 366.005 33.2462 365.785 34.0807 365.785C34.9152 365.785 35.6308 366.007 36.2273 366.451C36.8239 366.891 37.2803 367.53 37.5963 368.368C37.9159 369.203 38.0757 370.211 38.0757 371.394C38.0757 372.583 37.9177 373.599 37.6016 374.441C37.2856 375.279 36.8293 375.92 36.2327 376.364C35.6361 376.804 34.9187 377.024 34.0807 377.024ZM34.0807 375.602C34.8193 375.602 35.3964 375.241 35.8119 374.521C36.2309 373.8 36.4404 372.757 36.4404 371.394C36.4404 370.488 36.3445 369.723 36.1528 369.098C35.9646 368.469 35.6929 367.994 35.3378 367.67C34.9862 367.344 34.5672 367.18 34.0807 367.18C33.3456 367.18 32.7685 367.543 32.3495 368.267C31.9305 368.991 31.7192 370.034 31.7156 371.394C31.7156 372.303 31.8097 373.072 31.9979 373.7C32.1897 374.325 32.4614 374.799 32.8129 375.122C33.1645 375.442 33.5871 375.602 34.0807 375.602ZM41.1712 374.068L41.1606 372.124H41.4376L44.6975 368.661H46.6045L42.8864 372.603H42.6361L41.1712 374.068ZM39.7064 376.843V365.934H41.2991V376.843H39.7064ZM44.8733 376.843L41.9436 372.955L43.0409 371.841L46.8282 376.843H44.8733Z" fill="#7D7D7D"/>
<path d="M62.5996 369.971H454.541" stroke="#F1F1F1" stroke-width="0.934306"/>
<path d="M27.2711 475.028C26.4295 475.024 25.7104 474.802 25.1138 474.362C24.5172 473.922 24.0609 473.281 23.7449 472.439C23.4288 471.597 23.2708 470.584 23.2708 469.397C23.2708 468.215 23.4288 467.205 23.7449 466.367C24.0645 465.528 24.5225 464.889 25.1191 464.449C25.7193 464.009 26.4366 463.788 27.2711 463.788C28.1056 463.788 28.8212 464.01 29.4178 464.454C30.0144 464.895 30.4707 465.534 30.7868 466.372C31.1064 467.206 31.2662 468.215 31.2662 469.397C31.2662 470.587 31.1081 471.603 30.7921 472.444C30.476 473.282 30.0197 473.923 29.4231 474.367C28.8265 474.808 28.1092 475.028 27.2711 475.028ZM27.2711 473.606C28.0098 473.606 28.5868 473.245 29.0023 472.524C29.4213 471.803 29.6309 470.761 29.6309 469.397C29.6309 468.492 29.535 467.727 29.3432 467.102C29.155 466.473 28.8833 465.997 28.5282 465.674C28.1767 465.347 27.7576 465.184 27.2711 465.184C26.536 465.184 25.959 465.546 25.54 466.271C25.1209 466.995 24.9096 468.037 24.9061 469.397C24.9061 470.307 25.0002 471.075 25.1884 471.704C25.3801 472.329 25.6518 472.803 26.0034 473.126C26.3549 473.446 26.7775 473.606 27.2711 473.606Z" fill="#7D7D7D"/>
<path d="M62.5977 467.753H455.128" stroke="#F1F1F1" stroke-width="0.934306"/>
<mask id="mask0_43_748" style="mask-type:alpha" maskUnits="userSpaceOnUse" x="63" y="69" width="593" height="399">
<rect x="63" y="69.207" width="593" height="398.793" fill="#D9D9D9"/>
</mask>
<g mask="url(#mask0_43_748)">
<path d="M229.188 232.725L144.996 374.484L61.5371 407.197V471.066L656.733 472.624V90.9668L570.345 168.856L484.69 335.565L399.034 396.319L314.111 168.856L229.188 232.725Z" fill="url(#paint0_linear_43_748)" stroke="#25CD25" stroke-width="0.934306" stroke-dasharray="1.87 1.87"/>
</g>
</g>
<defs>
<linearGradient id="paint0_linear_43_748" x1="359.135" y1="90.9668" x2="359.135" y2="471.066" gradientUnits="userSpaceOnUse">
<stop stop-color="#25CD25" stop-opacity="0.4"/>
<stop offset="1" stop-color="#25CD25" stop-opacity="0"/>
</linearGradient>
<clipPath id="clip0_43_748">
<rect width="701" height="529" rx="14.9489" fill="white"/>
</clipPath>
</defs>
</svg>
