<svg width="24" height="25" viewBox="0 0 24 25" fill="none" xmlns="http://www.w3.org/2000/svg">
<path fill-rule="evenodd" clip-rule="evenodd" d="M15.9202 13.2988C15.9725 13.0407 16 12.7736 16 12.5C16 10.2909 14.2091 8.5 12 8.5C11.7264 8.5 11.4593 8.52746 11.2012 8.57977L12.1239 9.50251C13.6822 9.56583 14.9342 10.8178 14.9975 12.3761L15.9202 13.2988ZM9.39311 11.0143C9.14295 11.4523 9 11.9595 9 12.5C9 14.1569 10.3431 15.5 12 15.5C12.5405 15.5 13.0477 15.357 13.4857 15.1069L14.212 15.8332C13.5784 16.2545 12.8179 16.5 12 16.5C9.79086 16.5 8 14.7091 8 12.5C8 11.6821 8.24547 10.9216 8.66676 10.288L9.39311 11.0143Z" fill="#878787"/>
<path fill-rule="evenodd" clip-rule="evenodd" d="M16.1545 17.7751L15.4201 17.0406C14.3561 17.6196 13.1994 18 12.0007 18C10.3289 18 8.73889 17.2599 7.36787 16.2735C6.00079 15.29 4.89379 14.0918 4.19865 13.2478C3.7743 12.7326 3.73047 12.6435 3.73047 12.5C3.73047 12.3565 3.7743 12.2674 4.19865 11.7522C4.86794 10.9396 5.91904 9.79863 7.21645 8.83704L6.50212 8.12271C5.17064 9.13072 4.10457 10.2935 3.42677 11.1164L3.36796 11.1876C3.03744 11.587 2.73047 11.9579 2.73047 12.5C2.73047 13.0421 3.03744 13.413 3.36796 13.8124L3.42677 13.8836C4.15172 14.7638 5.32087 16.0327 6.78385 17.0853C8.24289 18.135 10.0368 19 12.0007 19C13.5108 19 14.9204 18.4886 16.1545 17.7751ZM9.19066 6.56861C10.0705 6.21828 11.0142 6 12.0007 6C13.9646 6 15.7586 6.865 17.2176 7.91472C18.6806 8.96727 19.8498 10.2362 20.5747 11.1164L20.6335 11.1876C20.9641 11.587 21.271 11.9579 21.271 12.5C21.271 13.0421 20.9641 13.413 20.6335 13.8124L20.5747 13.8836C20.0943 14.4669 19.4187 15.221 18.5918 15.9697L17.8838 15.2617C18.6794 14.5456 19.3346 13.8164 19.8028 13.2478C20.2272 12.7326 20.271 12.6435 20.271 12.5C20.271 12.3565 20.2272 12.2674 19.8028 11.7522C19.1077 10.9082 18.0007 9.71001 16.6336 8.72646C15.2626 7.74007 13.6726 7 12.0007 7C11.3063 7 10.626 7.12768 9.9697 7.34765L9.19066 6.56861Z" fill="#878787"/>
<path d="M5 2.5L21 18.5" stroke="#878787"/>
</svg>
