<svg width="22" height="15" viewBox="0 0 22 15" fill="none" xmlns="http://www.w3.org/2000/svg">
<path d="M20.544 6.545C20.848 6.971 21 7.185 21 7.5C21 7.816 20.848 8.029 20.544 8.455C19.178 10.371 15.689 14.5 11 14.5C6.31 14.5 2.822 10.37 1.456 8.455C1.152 8.029 1 7.815 1 7.5C1 7.184 1.152 6.971 1.456 6.545C2.822 4.629 6.311 0.5 11 0.5C15.69 0.5 19.178 4.63 20.544 6.545Z" stroke="#878787" stroke-linecap="round" stroke-linejoin="round"/>
<path d="M14 7.5C14 6.70435 13.6839 5.94129 13.1213 5.37868C12.5587 4.81607 11.7956 4.5 11 4.5C10.2044 4.5 9.44129 4.81607 8.87868 5.37868C8.31607 5.94129 8 6.70435 8 7.5C8 8.29565 8.31607 9.05871 8.87868 9.62132C9.44129 10.1839 10.2044 10.5 11 10.5C11.7956 10.5 12.5587 10.1839 13.1213 9.62132C13.6839 9.05871 14 8.29565 14 7.5Z" stroke="#878787" stroke-linecap="round" stroke-linejoin="round"/>
</svg>
